<svg id="SvgjsSvg1001" width="100" height="100" xmlns="http://www.w3.org/2000/svg" version="1.1" xmlns:xlink="http://www.w3.org/1999/xlink" xmlns:svgjs="http://svgjs.com/svgjs"><defs id="SvgjsDefs1002"></defs><g id="SvgjsG1008"><svg xmlns="http://www.w3.org/2000/svg" viewBox="0 0 1080 1080" width="100" height="100"><rect width="1080" height="1080" x="-540" y="-540" fill="#ffffff" rx="0" ry="0" transform="translate(540 540)" vector-effect="non-scaling-stroke" visibility="hidden" class="colorfff svgShape"></rect><g transform="translate(540 540)"><path fill="#ffffff" d="M 0 0 C 1.59686761 -0.00379468 3.1937319 -0.0093041 4.79058838 -0.01637268 C 9.0798358 -0.03019273 13.36867603 -0.01925447 17.65790033 -0.00266147 C 22.17345556 0.01131718 26.68899019 0.00471469 31.20455933 0.00120544 C 38.78129543 -0.00148609 46.35787215 0.01188938 53.93457031 0.03515625 C 62.66373251 0.06177852 71.3926288 0.06350298 80.12181771 0.05176789 C 88.56176436 0.04094816 97.00161589 0.04720874 105.44155502 0.06132317 C 109.01458897 0.06704476 112.58755244 0.06703075 116.16058731 0.06225777 C 120.37480363 0.05744678 124.58873278 0.0677581 128.80289459 0.08921242 C 130.33904172 0.09472411 131.87521676 0.09529806 133.41136551 0.09025955 C 147.19236577 0.05076318 159.1561476 2.10114872 171.44873047 8.50170898 C 172.40392578 8.9825293 173.35912109 9.46334961 174.34326172 9.95874023 C 202.59855901 25.17882829 213.12178932 54.33684016 225.02880859 82.2121582 C 226.56911626 85.78060825 228.16182993 89.32207166 229.79345703 92.84960938 C 230.44873047 94.50170898 230.44873047 94.50170898 230.44873047 96.50170898 C 231.06181061 96.49282654 231.67489075 96.48394409 232.30654907 96.47479248 C 238.69808614 96.38617216 245.08944814 96.32591367 251.48144531 96.28198242 C 253.86563203 96.26189005 256.24976962 96.23461117 258.63378906 96.19995117 C 262.06441385 96.1513304 265.49438602 96.12871587 268.92529297 96.11108398 C 269.98801422 96.09043884 271.05073547 96.0697937 272.1456604 96.04852295 C 278.2658746 96.04667497 281.79303934 96.41428741 286.44873047 100.50170898 C 290.0770671 104.3210107 290.75873505 107.38449905 290.94873047 112.50170898 C 290.75873505 117.61891892 290.0770671 120.68240726 286.44873047 124.50170898 C 281.25470509 128.83006347 277.05623341 129.14431812 270.57373047 129.25170898 C 269.69458984 129.28135742 268.81544922 129.31100586 267.90966797 129.34155273 C 265.75650502 129.41176457 263.60261562 129.45905779 261.44873047 129.50170898 C 262.29435547 130.28932617 263.13998047 131.07694336 264.01123047 131.88842773 C 275.1520404 142.49159823 284.46313895 154.65765419 288.03076172 170.00561523 C 289.25894486 175.22760256 290.91657772 177.2030227 295.51123047 180.06420898 C 296.99042969 180.91692383 296.99042969 180.91692383 298.49951172 181.78686523 C 325.78621079 197.65290615 343.07245979 226.92321543 351.44873047 256.50170898 C 351.96113281 258.26901367 351.96113281 258.26901367 352.48388672 260.07202148 C 360.01773295 291.95946367 353.63586753 327.97721362 336.80810547 355.80639648 C 326.32097025 372.48733397 312.29888011 387.21816178 295.44873047 397.50170898 C 294.37623047 398.18491211 293.30373047 398.86811523 292.19873047 399.57202148 C 264.33794003 416.53356752 228.84655608 421.51803818 197.06689453 414.33862305 C 189.27775068 412.36891631 181.79914177 409.73188469 174.44873047 406.50170898 C 173.79453125 406.2184375 173.14033203 405.93516602 172.46630859 405.64331055 C 143.17021425 392.7101567 119.70907842 368.00380662 107.44873047 338.50170898 C 103.18598443 327.40730833 99.44873047 316.4588025 99.44873047 304.50170898 C 62.15873047 304.50170898 24.86873047 304.50170898 -13.55126953 304.50170898 C -13.55126953 313.08170898 -13.55126953 321.66170898 -13.55126953 330.50170898 C -18.46885519 345.25446595 -25.40734626 357.33428433 -39.55126953 364.50170898 C -47.63565901 367.83405351 -54.90044749 369.10997151 -63.60595703 369.06811523 C -64.70996857 369.07431381 -65.8139801 369.08051239 -66.95144653 369.0868988 C -69.26905443 369.09395052 -71.58671349 369.0909052 -73.90429688 369.078125 C -77.4112867 369.06426818 -80.915598 369.09839498 -84.42236328 369.13647461 C -102.24683922 369.19807319 -115.50710948 367.28482526 -128.69970703 354.40405273 C -137.51709576 345.11137726 -141.91004617 334.61461585 -141.68408203 321.82202148 C -141.68488862 320.1540509 -141.6875504 318.48608036 -141.69189453 316.81811523 C -141.68993312 314.22169546 -141.67628409 311.62753203 -141.63037109 309.03149414 C -141.09245908 297.20006457 -141.09245908 297.20006457 -146.42626953 287.12670898 C -147.47814453 286.22178711 -147.47814453 286.22178711 -148.55126953 285.29858398 C -153.90899996 280.48499805 -157.06218173 271.55339709 -157.74323654 264.5189209 C -157.82337628 262.33015527 -157.84439261 260.14897462 -157.84179688 257.95874023 C -157.85187271 256.72050758 -157.85187271 256.72050758 -157.8621521 255.45726013 C -157.88106183 252.74284748 -157.88505364 250.02868332 -157.88720703 247.31420898 C -157.89364303 245.40958559 -157.90037197 243.50496317 -157.90737915 241.6003418 C -157.91933672 237.60927036 -157.92306186 233.61828534 -157.921875 229.62719727 C -157.92167264 224.55162163 -157.94889589 219.47661111 -157.98341942 214.40116882 C -158.00583742 210.46479836 -158.00970791 206.52856028 -158.00865555 202.59213257 C -158.01099219 200.72331813 -158.0197044 198.85449894 -158.03532028 196.98574829 C -158.14561193 182.41563872 -156.72610042 169.22839265 -149.73876953 156.12670898 C -149.39185059 155.45881348 -149.04493164 154.79091797 -148.6875 154.1027832 C -143.51860504 144.4043226 -136.42859314 137.09373717 -128.55126953 129.50170898 C -129.85322266 129.47592773 -131.15517578 129.45014648 -132.49658203 129.42358398 C -134.22317709 129.36728197 -135.94973829 129.30993511 -137.67626953 129.25170898 C -138.53220703 129.2375293 -139.38814453 129.22334961 -140.27001953 129.20874023 C -147.19758105 128.94229556 -151.06779246 127.11589538 -155.92626953 122.00170898 C -158.32430529 116.8367089 -158.30508489 112.10148019 -157.55126953 106.50170898 C -155.39325893 101.85368615 -152.31125452 98.51187827 -147.55126953 96.50170898 C -143.70390909 95.95954849 -139.90653312 96.03573371 -136.02783203 96.11108398 C -134.92651947 96.11674377 -133.82520691 96.12240356 -132.69052124 96.12823486 C -129.1853219 96.15056157 -125.68115807 96.20075326 -122.17626953 96.25170898 C -119.79477391 96.27177868 -117.41326222 96.29002862 -115.03173828 96.30639648 C -109.20456418 96.35041424 -103.37799085 96.4172901 -97.55126953 96.50170898 C -97.19005005 95.33309326 -97.19005005 95.33309326 -96.8215332 94.14086914 C -95.17353914 89.4195546 -93.21021673 84.86401341 -91.22705078 80.27514648 C -90.80256149 79.29107819 -90.3780722 78.30700989 -89.9407196 77.29312134 C -89.04191153 75.21310408 -88.14163557 73.13372058 -87.23999023 71.05493164 C -85.87877897 67.91137154 -84.52838327 64.76330921 -83.17822266 61.61499023 C -73.40171103 38.9611174 -62.54833733 20.02891534 -39.86376953 8.25170898 C -39.26540283 7.93427734 -38.66703613 7.6168457 -38.05053711 7.28979492 C -25.84812839 1.28099715 -13.39951236 -0.09229269 0 0 Z M -38.52392578 48.59936523 C -46.90481836 58.74853405 -51.52753175 71.78976687 -56.67504883 83.77563477 C -57.74359809 86.26294866 -58.81792775 88.74770599 -59.89306641 91.23217773 C -60.58546259 92.83750036 -61.27753145 94.44296421 -61.96923828 96.04858398 C -62.44274971 97.14417633 -62.44274971 97.14417633 -62.92582703 98.26190186 C -63.22656631 98.96333313 -63.5273056 99.6647644 -63.8371582 100.38745117 C -64.09663742 100.99079285 -64.35611664 101.59413452 -64.62345886 102.21575928 C -66.00371663 105.61645291 -67.26260208 109.06526244 -68.55126953 112.50170898 C 20.54873047 112.50170898 109.64873047 112.50170898 201.44873047 112.50170898 C 197.123617 101.99786199 192.80177581 91.51034335 188.26879883 81.09667969 C 187.67555568 79.73049734 187.08543351 78.36295592 186.49829102 76.99414062 C 178.92142925 59.33286147 170.86086877 44.49563105 152.61669922 36.21655273 C 142.52441021 32.27844276 132.46707445 32.35258995 121.76586914 32.35644531 C 120.40471811 32.35344751 119.04356792 32.35004356 117.68241882 32.3462677 C 114.00870489 32.33748703 110.3350143 32.33509211 106.66129088 32.33445191 C 104.35973036 32.33373807 102.05817566 32.33159747 99.75661659 32.3289547 C 91.70924126 32.31972114 83.66188241 32.31561734 75.61450195 32.31640625 C 68.14199296 32.31700661 60.66955625 32.3064578 53.19706553 32.29066259 C 46.75683131 32.27753992 40.31662058 32.27222432 33.87637311 32.27286166 C 30.04083381 32.27311524 26.20535884 32.27034171 22.36983299 32.25968361 C 18.75904339 32.24992253 15.1483786 32.24997761 11.5375843 32.25720024 C 9.60050976 32.25872549 7.66343502 32.25045583 5.72637939 32.24176025 C -11.84637114 32.30414748 -26.14793048 35.43914845 -38.52392578 48.59936523 Z M -113.80126953 161.81420898 C -125.1138205 175.04223174 -125.70779251 190.43645949 -125.75439453 207.06420898 C -125.75722191 207.75080597 -125.76004929 208.43740295 -125.76296234 209.14480591 C -125.77785556 212.77321748 -125.78714918 216.40159025 -125.79150391 220.0300293 C -125.79699728 223.7518939 -125.82107165 227.47339434 -125.84947586 231.19514465 C -125.8681959 234.08297746 -125.87331262 236.97072373 -125.87483978 239.85861206 C -125.87784194 241.22999071 -125.88578677 242.60136873 -125.89902496 243.97268677 C -126.22528725 256.21560706 -126.22528725 256.21560706 -121.27618408 267.07739258 C -115.45390065 272.45321662 -108.34377935 272.79782 -100.86206055 272.72875977 C -99.60231667 272.72919785 -99.60231667 272.72919785 -98.31712341 272.72964478 C -95.56303286 272.72826023 -92.80921861 272.71274051 -90.05517578 272.69702148 C -88.13704069 272.69328824 -86.21890368 272.69044274 -84.30076599 272.68844604 C -79.26855137 272.68083411 -74.23645341 272.66120667 -69.20428467 272.63903809 C -64.06280088 272.61852698 -58.92129812 272.60943309 -53.77978516 272.59936523 C -43.70356221 272.5779584 -33.6274256 272.54385204 -23.55126953 272.50170898 C -23.04265381 271.50429688 -22.53403809 270.50688477 -22.01000977 269.47924805 C -20.09194017 265.72013929 -18.16928861 261.96338904 -16.24536133 258.20727539 C -15.41894671 256.59233887 -14.59371706 254.97679532 -13.76977539 253.3605957 C 4.41193795 217.70454267 4.41193795 217.70454267 20.53959656 211.72671509 C 29.24795517 209.00662517 37.78022399 209.06426948 46.79638672 209.10327148 C 48.46064888 209.10124551 50.12491016 209.09832975 51.78916931 209.09457397 C 55.25951679 209.09017642 58.72963102 209.09649892 62.19995117 209.1105957 C 66.62343665 209.12769956 71.04637636 209.11782256 75.46984196 209.09987831 C 78.90075208 209.088982 82.33153509 209.09251324 85.76244926 209.10026169 C 87.39255273 209.10224688 89.02266817 209.0998643 90.65275764 209.09282303 C 99.34062281 209.06351542 107.24174478 209.28803869 115.44873047 212.50170898 C 116.64498047 212.89358398 117.84123047 213.28545898 119.07373047 213.68920898 C 119.85748047 213.95733398 120.64123047 214.22545898 121.44873047 214.50170898 C 121.93599609 213.87006836 122.42326172 213.23842773 122.92529297 212.58764648 C 139.73083849 191.38210359 159.74240848 176.02627937 185.44873047 167.18920898 C 186.11114746 166.9587085 186.77356445 166.72820801 187.45605469 166.49072266 C 201.21309603 162.04068422 214.60414415 161.07618047 228.94873047 161.31420898 C 230.56199896 161.32931206 232.17528143 161.34299034 233.78857422 161.35522461 C 237.67564966 161.38771885 241.56202708 161.43917539 245.44873047 161.50170898 C 236.82536546 150.83461383 226.66801333 146.17482939 213.09217417 144.71411073 C 208.22393457 144.32294575 203.35689071 144.36106176 198.47563171 144.36799622 C 197.29626205 144.36573066 196.11689238 144.3634651 194.90178424 144.36113089 C 191.65022023 144.35591883 188.39869124 144.35514203 185.14712441 144.35632527 C 181.63167882 144.35653023 178.11624133 144.35100151 174.60079956 144.3462677 C 167.72186904 144.33798143 160.84294709 144.33521378 153.96401199 144.33465532 C 148.36983928 144.33417924 142.77566939 144.33211992 137.18149757 144.3289547 C 121.30291173 144.320154 105.42433262 144.31553446 89.54574432 144.31628517 C 88.2632437 144.3163451 88.2632437 144.3163451 86.95483398 144.31640625 C 85.67075834 144.31646757 85.67075834 144.31646757 84.36074177 144.31653013 C 70.48901002 144.31693654 56.61730543 144.30736683 42.74558153 144.29326788 C 28.48448023 144.27888812 14.22339216 144.27199857 -0.03771657 144.27286166 C -8.03714755 144.27319305 -16.03655007 144.27047117 -24.0359745 144.25968361 C -30.84664278 144.25055758 -37.65726968 144.24842062 -44.46794144 144.25519303 C -47.93880129 144.25844752 -51.40958183 144.25855389 -54.88043404 144.24983978 C -58.65276621 144.24209908 -62.42489198 144.24677861 -66.19721985 144.25447083 C -67.82230617 144.24675548 -67.82230617 144.24675548 -69.48022252 144.23888427 C -87.52347639 144.31983423 -101.26954452 148.53151918 -113.80126953 161.81420898 Z M 162.44873047 217.50170898 C 161.17449219 218.65606445 161.17449219 218.65606445 159.87451172 219.83374023 C 144.69922052 234.21889376 132.50326003 256.02027952 131.28759766 277.32568359 C 130.89570214 306.054815 135.48208427 330.42984804 155.44873047 352.50170898 C 156.60695313 353.78368164 156.60695313 353.78368164 157.78857422 355.09155273 C 174.82297799 373.00942639 198.91424326 383.6914103 223.64794922 384.56811523 C 248.63740785 384.13150599 271.89186789 376.7476472 290.44873047 359.50170898 C 291.32142578 358.69733398 292.19412109 357.89295898 293.09326172 357.06420898 C 308.71064523 342.07901341 320.3670382 320.60504998 321.60986328 298.65600586 C 322.01481287 270.3472044 317.08557063 246.20899028 297.44873047 224.50170898 C 296.29050781 223.21973633 296.29050781 223.21973633 295.10888672 221.91186523 C 276.71728459 202.56640367 253.50485166 194.62645706 227.44873047 192.50170898 C 203.33598106 192.50170898 180.14262415 201.08957768 162.44873047 217.50170898 Z M 26.44873047 246.50170898 C 24.62026763 249.23758435 24.62026763 249.23758435 23.11669922 252.32592773 C 22.54628906 253.43645508 21.97587891 254.54698242 21.38818359 255.69116211 C 20.81003906 256.84551758 20.23189453 257.99987305 19.63623047 259.18920898 C 18.74000977 260.93814453 18.74000977 260.93814453 17.82568359 262.72241211 C 14.94287908 267.40506988 14.94287908 267.40506988 13.44873047 272.50170898 C 41.82873047 272.50170898 70.20873047 272.50170898 99.44873047 272.50170898 C 100.76873047 265.90170898 102.08873047 259.30170898 103.44873047 252.50170898 C 104.10873047 249.53170898 104.76873047 246.56170898 105.44873047 243.50170898 C 100.17657458 240.86563104 95.58731766 240.37967096 89.75390625 240.35644531 C 88.65901886 240.35006546 87.56413147 240.34368561 86.43606567 240.33711243 C 85.26719818 240.3359996 84.09833069 240.33488678 82.89404297 240.33374023 C 81.67852753 240.33041183 80.46301208 240.32708344 79.21066284 240.32365417 C 76.64370094 240.31859968 74.0767325 240.31624539 71.50976562 240.31640625 C 67.5947786 240.31422073 63.6800739 240.29605159 59.76513672 240.27709961 C 57.26643976 240.27416515 54.76774147 240.27218071 52.26904297 240.27124023 C 51.10422394 240.26405472 49.93940491 240.2568692 48.73928833 240.24946594 C 36.53448596 240.22787025 36.53448596 240.22787025 26.44873047 246.50170898 Z M -109.55126953 304.50170898 C -110.48151504 318.61808151 -110.48151504 318.61808151 -105.26220703 331.07983398 C -98.24790292 337.60651267 -88.76707436 336.84467457 -79.84570312 336.81738281 C -77.6884485 336.8142268 -75.53257362 336.83771459 -73.37548828 336.86303711 C -61.48523767 337.10511299 -61.48523767 337.10511299 -50.98168945 332.2265625 C -43.74556 324.42476739 -45.55126953 314.52268127 -45.55126953 304.50170898 C -66.67126953 304.50170898 -87.79126953 304.50170898 -109.55126953 304.50170898 Z" transform="translate(-98.79 -208.75)" vector-effect="non-scaling-stroke" class="colorfff svgShape"></path><path fill="#ffffff" d="M 0 0 C 4.96519463 2.30526893 7.39089701 5.24073974 10 10 C 10.51769038 12.98030847 10.46847054 15.88103031 10.390625 18.8984375 C 10.38496521 19.73339752 10.37930542 20.56835754 10.37347412 21.42861938 C 10.35120223 24.07801266 10.30102523 26.72602016 10.25 29.375 C 10.22992302 31.17836579 10.21167435 32.98175292 10.1953125 34.78515625 C 10.15136786 39.19063269 10.08240601 43.59508194 10 48 C 11.11971191 47.97905273 12.23942383 47.95810547 13.39306641 47.93652344 C 17.56383377 47.86389574 21.73454568 47.81811789 25.90576172 47.78027344 C 27.70794081 47.76020967 29.51005521 47.73295187 31.31201172 47.69824219 C 33.90869136 47.64949171 36.50450729 47.62697918 39.1015625 47.609375 C 40.30191635 47.57840729 40.30191635 47.57840729 41.52651978 47.54681396 C 46.83916147 47.54470295 49.76422625 48.51659669 54 52 C 57.62833663 55.81930172 58.31000458 58.88279006 58.5 64 C 58.31000458 69.11720994 57.62833663 72.18069828 54 76 C 48.94357099 80.15829141 45.36258981 80.55215211 39.1015625 80.390625 C 38.26660248 80.38496521 37.43164246 80.37930542 36.57138062 80.37347412 C 33.92198734 80.35120223 31.27397984 80.30102523 28.625 80.25 C 26.82163421 80.22992302 25.01824708 80.21167435 23.21484375 80.1953125 C 18.80936731 80.15136786 14.40491806 80.08240601 10 80 C 10.0314209 81.67956787 10.0314209 81.67956787 10.06347656 83.39306641 C 10.13610426 87.56383377 10.18188211 91.73454568 10.21972656 95.90576172 C 10.23979033 97.70794081 10.26704813 99.51005521 10.30175781 101.31201172 C 10.35050829 103.90869136 10.37302082 106.50450729 10.390625 109.1015625 C 10.41127014 109.9017984 10.43191528 110.7020343 10.45318604 111.52651978 C 10.45529705 116.83916147 9.48340331 119.76422625 6 124 C 2.18069828 127.62833663 -0.88279006 128.31000458 -6 128.5 C -11.11720994 128.31000458 -14.18069828 127.62833663 -18 124 C -22.15829141 118.94357099 -22.55215211 115.36258981 -22.390625 109.1015625 C -22.38496521 108.26660248 -22.37930542 107.43164246 -22.37347412 106.57138062 C -22.35120223 103.92198734 -22.30102523 101.27397984 -22.25 98.625 C -22.22992302 96.82163421 -22.21167435 95.01824708 -22.1953125 93.21484375 C -22.15136786 88.80936731 -22.08240601 84.40491806 -22 80 C -23.67956787 80.0314209 -23.67956787 80.0314209 -25.39306641 80.06347656 C -29.56383377 80.13610426 -33.73454568 80.18188211 -37.90576172 80.21972656 C -39.70794081 80.23979033 -41.51005521 80.26704813 -43.31201172 80.30175781 C -45.90869136 80.35050829 -48.50450729 80.37302082 -51.1015625 80.390625 C -52.30191635 80.42159271 -52.30191635 80.42159271 -53.52651978 80.45318604 C -58.83916147 80.45529705 -61.76422625 79.48340331 -66 76 C -69.62833663 72.18069828 -70.31000458 69.11720994 -70.5 64 C -70.31000458 58.88279006 -69.62833663 55.81930172 -66 52 C -60.94357099 47.84170859 -57.36258981 47.44784789 -51.1015625 47.609375 C -50.26660248 47.61503479 -49.43164246 47.62069458 -48.57138062 47.62652588 C -45.92198734 47.64879777 -43.27397984 47.69897477 -40.625 47.75 C -38.82163421 47.77007698 -37.01824708 47.78832565 -35.21484375 47.8046875 C -30.80936731 47.84863214 -26.40491806 47.91759399 -22 48 C -22.02094727 46.88028809 -22.04189453 45.76057617 -22.06347656 44.60693359 C -22.13610426 40.43616623 -22.18188211 36.26545432 -22.21972656 32.09423828 C -22.23979033 30.29205919 -22.26704813 28.48994479 -22.30175781 26.68798828 C -22.35050829 24.09130864 -22.37302082 21.49549271 -22.390625 18.8984375 C -22.41127014 18.0982016 -22.43191528 17.2979657 -22.45318604 16.47348022 C -22.45529705 11.16083853 -21.48340331 8.23577375 -18 4 C -12.72867143 -1.00776214 -6.89190982 -0.92775709 0 0 Z" transform="translate(133.66 15.76)" vector-effect="non-scaling-stroke" class="colorfff svgShape"></path><path fill="#ffffff" d="M 0 0 C 1.30904297 -0.0038269 2.61808594 -0.00765381 3.96679688 -0.01159668 C 6.73066196 -0.01747605 9.49400802 -0.00898041 12.2578125 0.00976562 C 15.78862831 0.03255558 19.31822777 0.01942391 22.84899902 -0.00452423 C 26.23276177 -0.02250956 29.61620276 -0.00989232 33 0 C 34.89395508 -0.01214539 34.89395508 -0.01214539 36.82617188 -0.02453613 C 47.68018545 0.09130219 47.68018545 0.09130219 52.5 4.53125 C 56.12833663 8.35055172 56.81000458 11.41404006 57 16.53125 C 56.81000458 21.64845994 56.12833663 24.71194828 52.5 28.53125 C 46.74545317 33.83226051 40.50898761 33.11065296 33 33.0625 C 31.69095703 33.0663269 30.38191406 33.07015381 29.03320312 33.07409668 C 26.26933804 33.07997605 23.50599198 33.07148041 20.7421875 33.05273438 C 17.21137169 33.02994442 13.68177223 33.04307609 10.15100098 33.06702423 C 6.76723823 33.08500956 3.38379724 33.07239232 0 33.0625 C -1.26263672 33.07059692 -2.52527344 33.07869385 -3.82617188 33.08703613 C -14.68018545 32.97119781 -14.68018545 32.97119781 -19.5 28.53125 C -23.12833663 24.71194828 -23.81000458 21.64845994 -24 16.53125 C -23.81000458 11.41404006 -23.12833663 8.35055172 -19.5 4.53125 C -13.74545317 -0.76976051 -7.50898761 -0.04815296 0 0 Z" transform="translate(-184.84 -16.78)" vector-effect="non-scaling-stroke" class="colorfff svgShape"></path></g></svg></g></svg>