<?xml version="1.0" encoding="UTF-8"?>
<svg version="1.1" xmlns="http://www.w3.org/2000/svg" width="50" height="50">
<path d="M0 0 C15.18 0 30.36 0 46 0 C46 9.24 46 18.48 46 28 C44.68 28 43.36 28 42 28 C42 27.34 42 26.68 42 26 C42.66 26 43.32 26 44 26 C44 18.08 44 10.16 44 2 C40.04 2 36.08 2 32 2 C32 9.92 32 17.84 32 26 C32.66 26 33.32 26 34 26 C34 26.66 34 27.32 34 28 C32.02 28 30.04 28 28 28 C28 27.34 28 26.68 28 26 C28.66 26 29.32 26 30 26 C30 18.08 30 10.16 30 2 C25.38 2 20.76 2 16 2 C16 9.92 16 17.84 16 26 C16.66 26 17.32 26 18 26 C18 26.66 18 27.32 18 28 C16.02 28 14.04 28 12 28 C12 27.34 12 26.68 12 26 C12.66 26 13.32 26 14 26 C14 18.08 14 10.16 14 2 C10.04 2 6.08 2 2 2 C2 9.92 2 17.84 2 26 C2.66 26 3.32 26 4 26 C4 26.66 4 27.32 4 28 C2.68 28 1.36 28 0 28 C0 18.76 0 9.52 0 0 Z " fill="#000000" transform="translate(2,12)"/>
<path d="M0 0 C2.64 0 5.28 0 8 0 C8 1.98 8 3.96 8 6 C6.02 6 4.04 6 2 6 C2 7.65 2 9.3 2 11 C1.34 11 0.68 11 0 11 C0 7.37 0 3.74 0 0 Z M2 2 C2 2.66 2 3.32 2 4 C2.99 4 3.98 4 5 4 C5 3.34 5 2.68 5 2 C4.01 2 3.02 2 2 2 Z " fill="#000000" transform="translate(21,21)"/>
</svg>
