<?xml version="1.0" encoding="UTF-8"?>
<svg version="1.1" xmlns="http://www.w3.org/2000/svg" width="64" height="64">
<path d="M0 0 C17.16 0 34.32 0 52 0 C52 9.9 52 19.8 52 30 C50.68 30 49.36 30 48 30 C48 31.32 48 32.64 48 34 C46.68 34 45.36 34 44 34 C44 35.32 44 36.64 44 38 C26.84 38 9.68 38 -8 38 C-8 28.1 -8 18.2 -8 8 C-6.68 8 -5.36 8 -4 8 C-4 6.68 -4 5.36 -4 4 C-2.68 4 -1.36 4 0 4 C0 2.68 0 1.36 0 0 Z M3 2 C3 2.66 3 3.32 3 4 C17.85 4 32.7 4 48 4 C48 11.92 48 19.84 48 28 C48.33 28 48.66 28 49 28 C49 19.42 49 10.84 49 2 C33.82 2 18.64 2 3 2 Z M-1 6 C-1 6.66 -1 7.32 -1 8 C13.85 8 28.7 8 44 8 C44 15.92 44 23.84 44 32 C44.33 32 44.66 32 45 32 C45 23.42 45 14.84 45 6 C29.82 6 14.64 6 -1 6 Z M-5 10 C-5 18.58 -5 27.16 -5 36 C10.18 36 25.36 36 41 36 C41 27.42 41 18.84 41 10 C25.82 10 10.64 10 -5 10 Z " fill="#000000" transform="translate(10,13)"/>
<path d="M0 0 C11.88 0 23.76 0 36 0 C36.495 1.485 36.495 1.485 37 3 C37.99 3.33 38.98 3.66 40 4 C40 8.62 40 13.24 40 18 C39.01 18.33 38.02 18.66 37 19 C36.505 20.485 36.505 20.485 36 22 C24.12 22 12.24 22 0 22 C-0.33 21.01 -0.66 20.02 -1 19 C-1.99 18.67 -2.98 18.34 -4 18 C-4 13.38 -4 8.76 -4 4 C-3.01 3.67 -2.02 3.34 -1 3 C-0.67 2.01 -0.34 1.02 0 0 Z M-1 6 C-1.63192525 8.36220152 -1.63192525 8.36220152 -1.5 10.9375 C-1.5103125 11.79214844 -1.520625 12.64679687 -1.53125 13.52734375 C-0.81596992 16.85655175 0.33089484 17.90420773 3 20 C6.21661039 20.61488546 6.21661039 20.61488546 9.8125 20.53125 C10.46323486 20.5350769 11.11396973 20.53890381 11.78442383 20.54284668 C13.15610304 20.54556076 14.52783444 20.53823453 15.89941406 20.52148438 C17.99401685 20.50006119 20.08519084 20.52129637 22.1796875 20.546875 C23.51563254 20.54423163 24.85157545 20.53910643 26.1875 20.53125 C28.00314453 20.52448242 28.00314453 20.52448242 29.85546875 20.51757812 C33.5713927 19.90595089 34.75267869 18.96582243 37 16 C37.62701127 13.5267856 37.62701127 13.5267856 37.5 10.9375 C37.5103125 10.08027344 37.520625 9.22304688 37.53125 8.33984375 C37.17985099 5.89985312 37.17985099 5.89985312 35.359375 4.203125 C32.32431813 2.65544699 30.1395232 2.70197207 26.75 2.8125 C25.67234375 2.83957031 24.5946875 2.86664062 23.484375 2.89453125 C22.25460938 2.94673828 22.25460938 2.94673828 21 3 C21.66 3.70125 22.32 4.4025 23 5.125 C25.34966143 8.50263831 25.68543938 9.97304363 25 14 C23.375 16.375 23.375 16.375 21 18 C17.3282913 18.61195145 15.71186432 18.48706506 12.625 16.375 C10.50029121 13.26965639 10.39613708 11.6986604 11 8 C13 5.125 13 5.125 15 3 C13.08404032 2.91866209 11.16708068 2.86065633 9.25 2.8125 C8.18265625 2.77769531 7.1153125 2.74289063 6.015625 2.70703125 C2.62469524 3.03646095 1.28963074 3.49230919 -1 6 Z M14.0625 7.0625 C12.50045638 9.91093248 13.25078976 11.93504903 14 15 C18.07700925 16.12437693 18.07700925 16.12437693 21.9375 14.9375 C23.49954362 12.08906752 22.74921024 10.06495097 22 7 C17.92299075 5.87562307 17.92299075 5.87562307 14.0625 7.0625 Z " fill="#000000" transform="translate(10,25)"/>
</svg>
