<?xml version="1.0" encoding="UTF-8"?>
<svg version="1.1" xmlns="http://www.w3.org/2000/svg" width="512" height="512">
<path d="M0 0 C0.79470703 -0.020625 1.58941406 -0.04125 2.40820312 -0.0625 C7.41456092 -0.09562726 10.85863897 0.45017152 15.1875 3.25 C16.79563266 6.46626531 16.64242615 9.76223287 16.1875 13.25 C14.875 15.75 14.875 15.75 12.1875 17.25 C8.5575 17.25 4.9275 17.25 1.1875 17.25 C1.1875 93.81 1.1875 170.37 1.1875 249.25 C48.3775 249.25 95.5675 249.25 144.1875 249.25 C144.1875 172.69 144.1875 96.13 144.1875 17.25 C140.2275 17.25 136.2675 17.25 132.1875 17.25 C128.1875 13.25 128.1875 13.25 127.65625 11.25 C127.71302437 7.61644045 127.77217271 5.80854359 130 2.8125 C134.04498631 -0.07677593 137.93266529 0.07547721 142.70703125 0.046875 C143.44322189 0.04117493 144.17941254 0.03547485 144.93791199 0.02960205 C146.49545866 0.02016244 148.0530252 0.01362219 149.6105957 0.00976562 C151.98099086 0.00007769 154.35051203 -0.03094675 156.72070312 -0.0625 C158.23697404 -0.06903241 159.75325113 -0.07428195 161.26953125 -0.078125 C161.97286087 -0.0904718 162.67619049 -0.1028186 163.40083313 -0.11553955 C168.0603195 -0.09468626 171.25096569 0.75241834 175.1875 3.25 C176.8081143 6.10228116 177.52778874 7.91879044 176.69921875 11.16015625 C174.77976573 15.95386714 174.77976573 15.95386714 172.1875 17.25 C168.5575 17.25 164.9275 17.25 161.1875 17.25 C161.1875 93.81 161.1875 170.37 161.1875 249.25 C213.3275 249.25 265.4675 249.25 319.1875 249.25 C319.1875 172.69 319.1875 96.13 319.1875 17.25 C315.5575 17.25 311.9275 17.25 308.1875 17.25 C305.5 15.75 305.5 15.75 304.1875 13.25 C303.65644052 10.46336529 303.61054892 8.03193243 304.1875 5.25 C306.39490681 2.28141843 307.67347373 1.42134209 311.1875 0.25 C313.70323543 0.12958624 316.19047284 0.06195116 318.70703125 0.046875 C319.44322189 0.04117493 320.17941254 0.03547485 320.93791199 0.02960205 C322.49545866 0.02016244 324.0530252 0.01362219 325.6105957 0.00976562 C327.98099086 0.00007769 330.35051203 -0.03094675 332.72070312 -0.0625 C334.23697404 -0.06903241 335.75325113 -0.07428195 337.26953125 -0.078125 C337.97286087 -0.0904718 338.67619049 -0.1028186 339.40083313 -0.11553955 C344.05731789 -0.09469969 347.2389335 0.78256831 351.1875 3.25 C352.75221233 6.37942465 352.88451958 9.86082223 352.1875 13.25 C350.8675 14.57 349.5475 15.89 348.1875 17.25 C344.2275 17.25 340.2675 17.25 336.1875 17.25 C336.1875 93.81 336.1875 170.37 336.1875 249.25 C383.3775 249.25 430.5675 249.25 479.1875 249.25 C479.1875 172.69 479.1875 96.13 479.1875 17.25 C475.5575 17.25 471.9275 17.25 468.1875 17.25 C465.5 15.75 465.5 15.75 464.1875 13.25 C463.65644052 10.46336529 463.61054892 8.03193243 464.1875 5.25 C466.39490681 2.28141843 467.67347373 1.42134209 471.1875 0.25 C474.12062719 0.00095022 477.05736607 0.0188178 480 0 C480.79470703 -0.020625 481.58941406 -0.04125 482.40820312 -0.0625 C487.41456092 -0.09562726 490.85863897 0.45017152 495.1875 3.25 C496.34735209 5.56970419 496.31575896 6.90041115 496.32172108 9.48296928 C496.32617892 10.37623385 496.33063676 11.26949842 496.33522969 12.18983161 C496.33495315 13.67112452 496.33495315 13.67112452 496.33467102 15.18234253 C496.33834771 16.22661852 496.3420244 17.27089451 496.3458125 18.34681523 C496.35688362 21.8690731 496.36069895 25.39130152 496.36450195 28.91357422 C496.37076391 31.42951553 496.37741046 33.94545591 496.38441467 36.46139526 C496.40366619 44.02756928 496.41424563 51.59373814 496.42314246 59.15993041 C496.42752358 62.72081921 496.43289079 66.28170652 496.43813133 69.84259415 C496.45514333 81.67565286 496.46963875 93.50871064 496.47688007 105.34177971 C496.47879004 108.41323727 496.48071036 111.48469482 496.48266602 114.55615234 C496.48314976 115.31956948 496.4836335 116.08298662 496.4841319 116.86953761 C496.49243689 129.24368606 496.51778181 141.617738 496.55024669 153.99184428 C496.58328765 166.6887482 496.60132609 179.38560302 496.60452431 192.08255017 C496.60669202 199.21444567 496.61547873 206.34620037 496.64098549 213.47805405 C496.66491303 220.18391445 496.6685369 226.88947711 496.65822411 233.59538651 C496.6577264 236.06092928 496.66411524 238.52648418 496.67778015 240.99198914 C496.69535269 244.34953192 496.68846477 247.70614841 496.67524719 251.06369019 C496.69170106 252.53829092 496.69170106 252.53829092 496.70848733 254.04268157 C496.69990644 254.94116164 496.69132555 255.8396417 496.68248463 256.76534843 C496.68346144 257.54041264 496.68443824 258.31547685 496.68544465 259.11402786 C495.94400728 262.29448087 494.85834429 263.37245613 492.1875 265.25 C489.27679519 265.64191054 486.74532986 265.78755941 483.83532715 265.75336456 C482.98096982 265.75917833 482.12661249 265.76499209 481.24636555 265.77098203 C478.36383135 265.78565972 475.48213833 265.77166066 472.59960938 265.75793457 C470.52010409 265.76254041 468.44060205 265.76889118 466.36110687 265.77684355 C460.63138556 265.79360347 454.90192937 265.78526025 449.17220688 265.77289867 C442.9989819 265.76387771 436.82580369 265.7778032 430.65258789 265.78881836 C419.25311315 265.80560886 407.85374697 265.80410901 396.45427489 265.79317249 C385.92417871 265.78311935 375.39411367 265.78047921 364.86401367 265.78526306 C364.16615035 265.7855686 363.46828703 265.78587414 362.74927634 265.78618894 C359.9165851 265.78743425 357.08389388 265.78870784 354.25120267 265.790028 C327.6659206 265.80227032 301.08069263 265.79116014 274.49541891 265.76964041 C250.86410445 265.75065727 227.2328762 265.75235576 203.6015625 265.77148438 C177.06562222 265.79289226 150.52972976 265.80140218 123.99378204 265.78903532 C121.16618348 265.78775241 118.33858491 265.78650105 115.51098633 265.78526306 C114.81473418 265.78494675 114.11848203 265.78463044 113.40113133 265.78430455 C102.87637589 265.77975025 92.35165496 265.78508395 81.8269043 265.79518127 C69.8625269 265.80660237 57.89825137 265.8034069 45.93387794 265.7820583 C39.82509198 265.77151871 33.71648135 265.76747552 27.60769653 265.78065491 C22.02171366 265.79252444 16.43606957 265.78610639 10.85011768 265.7647447 C8.82326501 265.76025548 6.79638404 265.76259643 4.76954937 265.77224785 C2.02584349 265.78431639 -0.71668405 265.77203461 -3.46032715 265.75336456 C-4.65573514 265.76741156 -4.65573514 265.76741156 -5.87529278 265.78174233 C-9.34277096 265.73420226 -11.4328297 265.5170091 -14.30305052 263.49848127 C-15.99222034 260.98228794 -16.31334731 259.77104661 -16.31586456 256.77093506 C-16.32629555 255.87368839 -16.33672654 254.97644173 -16.34747362 254.05200577 C-16.33855073 253.07030285 -16.32962785 252.08859993 -16.32043457 251.07714844 C-16.32667453 250.0311636 -16.3329145 248.98517876 -16.33934355 247.90749741 C-16.35533952 244.3912295 -16.342643 240.87564845 -16.33007812 237.359375 C-16.33549628 234.84313552 -16.34261721 232.32689921 -16.35131836 229.81066895 C-16.36769187 223.67895397 -16.36525743 217.54749471 -16.3536678 211.41577625 C-16.34463927 206.4330516 -16.34340694 201.45038185 -16.34776306 196.46765137 C-16.34837599 195.75885574 -16.34898893 195.05006011 -16.34962043 194.31978583 C-16.35089932 192.87994288 -16.35219617 191.44009994 -16.3535108 190.00025702 C-16.36492074 176.49446615 -16.35179643 162.98878383 -16.33030933 149.48301077 C-16.31243794 137.89096323 -16.31554193 126.2990759 -16.33398438 114.70703125 C-16.35538382 101.25003038 -16.36382207 87.79312467 -16.35153532 74.33610916 C-16.35026111 72.90152233 -16.34900362 71.46693549 -16.34776306 70.03234863 C-16.34714596 69.3264792 -16.34652886 68.62060977 -16.34589306 67.89335036 C-16.34243736 62.91581551 -16.3482732 57.93834095 -16.35768127 52.96081543 C-16.37006226 46.26309789 -16.36126498 39.56573023 -16.33810425 32.86802673 C-16.33280223 30.40572108 -16.33435626 27.94339001 -16.34315491 25.48109436 C-16.35403457 22.12799868 -16.34043754 18.77588419 -16.32043457 15.42285156 C-16.32935746 14.44114864 -16.33828034 13.45944572 -16.34747362 12.44799423 C-16.27123422 5.89007855 -16.27123422 5.89007855 -13.96825409 2.67669678 C-9.48731124 -0.28883011 -5.16869931 0.03305323 0 0 Z " fill="#000000" transform="translate(15.8125,190.75)"/>
<path d="M0 0 C1.12298744 -0.01007584 1.12298744 -0.01007584 2.2686615 -0.02035522 C4.73540955 -0.03930033 7.20188496 -0.04325778 9.66870117 -0.04541016 C11.39117035 -0.05184105 13.11363844 -0.05856963 14.83610535 -0.06558228 C18.4447991 -0.0775467 22.05339719 -0.08126401 25.66210938 -0.08007812 C30.27211697 -0.07987511 34.88150691 -0.10716288 39.49136829 -0.14162254 C43.04915651 -0.1639303 46.60679708 -0.16791447 50.16464806 -0.16685867 C51.8634116 -0.16920935 53.56217953 -0.17800268 55.26087379 -0.19352341 C73.11348344 -0.34135471 73.11348344 -0.34135471 80.64135742 6.25537109 C87.48866429 14.52783513 88.56589527 21.73218775 88.51269531 32.42895508 C88.51284134 33.21026291 88.51298737 33.99157074 88.51313782 34.79655457 C88.51244619 37.35577255 88.5046892 39.91491597 88.49682617 42.47412109 C88.49495933 44.2577358 88.49353668 46.04135103 88.49253845 47.82496643 C88.48873427 52.50203893 88.47892205 57.17907999 88.46783447 61.85614014 C88.45757508 66.63569717 88.45303115 71.41525933 88.44799805 76.19482422 C88.43729778 85.56007234 88.42024674 94.92529722 88.39916992 104.29052734 C89.18291992 104.39365234 89.96666992 104.49677734 90.77416992 104.60302734 C93.39916992 105.29052734 93.39916992 105.29052734 95.39916992 108.29052734 C96.07260969 115.36164491 96.07260969 115.36164491 93.58666992 118.79052734 C91.39916992 120.29052734 91.39916992 120.29052734 88.39916992 120.29052734 C88.40964355 121.43416748 88.42011719 122.57780762 88.4309082 123.75610352 C88.46751498 128.05945622 88.49021613 132.36279559 88.5090332 136.66625977 C88.51899918 138.5175204 88.53257685 140.36876569 88.55004883 142.2199707 C88.71738368 160.42501862 88.69894103 176.30404286 75.50073242 190.31787109 C66.70006775 198.57871804 56.74455497 200.75825394 44.96948242 200.72412109 C43.89850311 200.72936295 42.8275238 200.7346048 41.72409058 200.74000549 C39.47012189 200.74639721 37.21611972 200.74512589 34.9621582 200.73657227 C31.54080916 200.7280687 28.12113553 200.75685561 24.69995117 200.78857422 C22.49812875 200.79018683 20.29630341 200.78960756 18.09448242 200.78662109 C17.08580109 200.79785507 16.07711975 200.80908905 15.03787231 200.82066345 C3.76388064 200.71176169 -5.42873877 197.09186215 -13.60083008 189.29052734 C-22.41662839 180.0557604 -25.2468522 170.05443818 -24.99145508 157.49755859 C-24.98579529 156.42551682 -24.9801355 155.35347504 -24.9743042 154.24894714 C-24.95213522 150.86649546 -24.9019757 147.4851521 -24.85083008 144.10302734 C-24.83073991 141.7924959 -24.81249359 139.48194765 -24.79614258 137.17138672 C-24.75233474 131.54406337 -24.68562141 125.91737457 -24.60083008 120.29052734 C-25.54958008 120.18740234 -26.49833008 120.08427734 -27.47583008 119.97802734 C-30.60083008 119.29052734 -30.60083008 119.29052734 -32.60083008 116.29052734 C-33.27148876 109.24861118 -33.27148876 109.24861118 -30.85083008 105.79052734 C-28.60083008 104.29052734 -28.60083008 104.29052734 -24.60083008 104.29052734 C-24.60971252 103.21834961 -24.61859497 102.14617187 -24.62774658 101.04150391 C-24.70896096 90.91934806 -24.76885716 80.79725864 -24.80807877 70.67485046 C-24.82892117 65.47124615 -24.85717773 60.26790564 -24.90258789 55.06445312 C-24.94616491 50.03940246 -24.96999235 45.01460497 -24.98033905 39.98937988 C-24.98770915 38.07568377 -25.00210123 36.16200094 -25.02375031 34.24841309 C-25.05294207 31.56032766 -25.05677953 28.87327794 -25.05493164 26.18505859 C-25.0765033 25.00793053 -25.0765033 25.00793053 -25.09851074 23.80702209 C-25.04954274 17.19001866 -23.00906847 12.038696 -18.63598633 7.04833984 C-17.98500977 6.50951172 -17.3340332 5.97068359 -16.66333008 5.41552734 C-16.01493164 4.86123047 -15.3665332 4.30693359 -14.69848633 3.73583984 C-9.97098559 0.47853021 -5.62512386 -0.00729588 0 0 Z M2.39916992 17.29052734 C7.20950438 24.92171379 7.20950438 24.92171379 12.39916992 32.29052734 C15.29663786 32.78257904 17.81219676 33.01682748 20.72338867 33.06787109 C21.54362015 33.08829971 22.36385162 33.10872833 23.2089386 33.129776 C24.94624285 33.16317162 26.68379894 33.18513023 28.42138672 33.1965332 C31.06364757 33.2277553 33.69490289 33.33878564 36.3347168 33.45263672 C45.45073474 33.82525107 45.45073474 33.82525107 53.31958008 29.91601562 C55.38470856 27.1129081 56.95128909 24.45063124 58.39916992 21.29052734 C59.05916992 19.97052734 59.71916992 18.65052734 60.39916992 17.29052734 C41.25916992 17.29052734 22.11916992 17.29052734 2.39916992 17.29052734 Z M70.39916992 32.29052734 C63.86960671 38.93463545 63.51739744 46.17468115 63.58139801 55.02602959 C63.58829399 55.77202478 63.59518997 56.51801998 63.60229492 57.28662109 C63.59824127 58.84489992 63.59240833 60.40317503 63.5848999 61.96144104 C63.57608597 65.22213993 63.58878963 68.48184863 63.61694336 71.74243164 C63.65087758 75.86816666 63.63108295 79.99155752 63.59622955 84.11720848 C63.28456711 108.34939972 63.28456711 108.34939972 70.39916992 131.29052734 C70.72916992 131.29052734 71.05916992 131.29052734 71.39916992 131.29052734 C71.39916992 98.62052734 71.39916992 65.95052734 71.39916992 32.29052734 C71.06916992 32.29052734 70.73916992 32.29052734 70.39916992 32.29052734 Z M-7.60083008 34.29052734 C-7.60083008 65.31052734 -7.60083008 96.33052734 -7.60083008 128.29052734 C-0.83778182 118.14595496 0.17128809 106.34303939 0.09838867 94.48583984 C0.10432088 93.02667669 0.11157717 91.5675184 0.12007141 90.10836792 C0.13182748 87.08126034 0.12544598 84.05489401 0.10595703 81.02783203 C0.08294173 77.17097943 0.11004825 73.31631136 0.1510191 69.45967293 C0.1767058 66.45847945 0.17399058 63.45780292 0.16312599 60.45653915 C0.16165226 59.03492099 0.16917752 57.61326064 0.18637657 56.19174576 C0.27556421 47.40645687 -0.30725273 40.84685483 -6.60083008 34.29052734 C-6.93083008 34.29052734 -7.26083008 34.29052734 -7.60083008 34.29052734 Z M16.39916992 49.29052734 C16.39916992 67.44052734 16.39916992 85.59052734 16.39916992 104.29052734 C26.62916992 104.29052734 36.85916992 104.29052734 47.39916992 104.29052734 C47.39916992 86.14052734 47.39916992 67.99052734 47.39916992 49.29052734 C37.16916992 49.29052734 26.93916992 49.29052734 16.39916992 49.29052734 Z M13.39916992 120.29052734 C12.07916992 124.58052734 10.75916992 128.87052734 9.39916992 133.29052734 C14.32450356 134.93230522 18.26949843 135.72842158 23.33666992 135.97802734 C24.07377197 136.01710205 24.81087402 136.05617676 25.5703125 136.09643555 C35.11145827 136.51597239 44.27358403 136.33238931 53.39916992 133.29052734 C52.07916992 129.00052734 50.75916992 124.71052734 49.39916992 120.29052734 C37.51916992 120.29052734 25.63916992 120.29052734 13.39916992 120.29052734 Z M70.39916992 141.29052734 C69.44010742 142.40427734 69.44010742 142.40427734 68.46166992 143.54052734 C61.34230088 150.80434735 50.2979874 151.392108 40.73510742 151.49365234 C38.50965131 151.51142058 36.28435966 151.52502707 34.05883789 151.53076172 C31.80080551 151.54041349 29.54370619 151.57147017 27.28588867 151.60302734 C15.72326648 151.68756046 4.21255008 151.0508559 -5.60083008 144.29052734 C-6.26083008 143.63052734 -6.92083008 142.97052734 -7.60083008 142.29052734 C-7.71802183 146.12359904 -7.78841085 149.95620342 -7.85083008 153.79052734 C-7.8843457 154.86818359 -7.91786133 155.94583984 -7.95239258 157.05615234 C-8.04993036 165.05425038 -6.95744536 170.46011547 -1.63598633 176.53271484 C-0.98500977 177.07154297 -0.3340332 177.61037109 0.33666992 178.16552734 C1.30926758 178.99697266 1.30926758 178.99697266 2.30151367 179.84521484 C7.76262092 183.60798893 12.80670677 183.61077864 19.23120117 183.62646484 C20.65706795 183.63645004 20.65706795 183.63645004 22.11174011 183.64663696 C24.11972118 183.65674413 26.12773571 183.66145458 28.13574219 183.66113281 C31.19091871 183.6654977 34.24464016 183.70181513 37.29956055 183.73974609 C39.25593585 183.74561649 41.21231797 183.74958439 43.16870117 183.75146484 C44.07417191 183.76583588 44.97964264 183.78020691 45.91255188 183.79501343 C52.99697273 183.74456935 58.27282173 182.03016696 63.64135742 177.32568359 C70.72446804 168.76833704 71.56817154 161.29507773 71.46166992 150.41552734 C71.4571582 149.53638672 71.45264648 148.65724609 71.44799805 147.75146484 C71.43629329 145.59778931 71.41836061 143.44414918 71.39916992 141.29052734 C71.06916992 141.29052734 70.73916992 141.29052734 70.39916992 141.29052734 Z " fill="#000000" transform="translate(56.600830078125,223.70947265625)"/>
<path d="M0 0 C1.12298744 -0.01007584 1.12298744 -0.01007584 2.2686615 -0.02035522 C4.73540955 -0.03930033 7.20188496 -0.04325778 9.66870117 -0.04541016 C11.39117035 -0.05184105 13.11363844 -0.05856963 14.83610535 -0.06558228 C18.4447991 -0.0775467 22.05339719 -0.08126401 25.66210938 -0.08007812 C30.27211697 -0.07987511 34.88150691 -0.10716288 39.49136829 -0.14162254 C43.04915651 -0.1639303 46.60679708 -0.16791447 50.16464806 -0.16685867 C51.8634116 -0.16920935 53.56217953 -0.17800268 55.26087379 -0.19352341 C73.11348344 -0.34135471 73.11348344 -0.34135471 80.64135742 6.25537109 C81.18018555 6.90634766 81.71901367 7.55732422 82.27416992 8.22802734 C82.8284668 8.87642578 83.38276367 9.52482422 83.95385742 10.19287109 C87.38861089 15.17790518 87.70175318 19.83335331 87.71801758 25.75268555 C87.7280632 26.59222275 87.73810883 27.43175995 87.74845886 28.29673767 C87.77925941 31.06158792 87.79631729 33.82634146 87.81323242 36.59130859 C87.83194658 38.51231211 87.85152018 40.43330744 87.87191772 42.35429382 C87.92321866 47.40287439 87.96285535 52.45148161 88.00006104 57.50018311 C88.04011341 62.65497417 88.09120015 67.80965458 88.14135742 72.96435547 C88.2380926 83.07300168 88.32250516 93.18171039 88.39916992 103.29052734 C89.85323242 103.97115234 89.85323242 103.97115234 91.33666992 104.66552734 C94.39916992 106.29052734 94.39916992 106.29052734 95.39916992 108.29052734 C95.97768232 115.46408106 95.97768232 115.46408106 93.64916992 118.79052734 C91.39916992 120.29052734 91.39916992 120.29052734 87.39916992 120.29052734 C87.40805237 120.87997635 87.41693481 121.46942535 87.42608643 122.07673645 C87.51515576 128.25817078 87.57514928 134.43942034 87.61889648 140.62133789 C87.63890819 142.92284562 87.66612623 145.22430317 87.70092773 147.52563477 C87.74990691 150.84973596 87.77224393 154.1731601 87.78979492 157.49755859 C87.82076263 159.02012016 87.82076263 159.02012016 87.85235596 160.57344055 C87.85584697 171.89939873 84.23239827 181.08502676 76.39916992 189.29052734 C67.26891935 198.00655105 57.232373 200.91859529 44.80932617 200.85693359 C43.21065956 200.86623146 43.21065956 200.86623146 41.57969666 200.87571716 C39.34187729 200.88277207 37.10400496 200.87971782 34.86621094 200.86694336 C31.47320477 200.85307449 28.08296001 200.88722158 24.69018555 200.92529297 C3.60653174 200.99996382 3.60653174 200.99996382 -5.60083008 195.29052734 C-6.7555481 194.57582275 -6.7555481 194.57582275 -7.93359375 193.84667969 C-16.80178193 187.99579712 -21.905834 179.39717239 -24.60083008 169.29052734 C-25.07592705 165.34129426 -25.07226294 161.47056595 -24.99145508 157.49755859 C-24.98579529 156.42551682 -24.9801355 155.35347504 -24.9743042 154.24894714 C-24.95213522 150.86649546 -24.9019757 147.4851521 -24.85083008 144.10302734 C-24.83073991 141.7924959 -24.81249359 139.48194765 -24.79614258 137.17138672 C-24.75233474 131.54406337 -24.68562141 125.91737457 -24.60083008 120.29052734 C-25.54958008 120.18740234 -26.49833008 120.08427734 -27.47583008 119.97802734 C-30.60083008 119.29052734 -30.60083008 119.29052734 -32.60083008 116.29052734 C-33.27623037 109.19882429 -33.27623037 109.19882429 -30.78833008 105.85302734 C-28.60083008 104.29052734 -28.60083008 104.29052734 -25.60083008 103.29052734 C-25.59718445 102.23087769 -25.59353882 101.17122803 -25.58978271 100.07946777 C-25.55278079 90.07479924 -25.49495127 80.07043703 -25.41692734 70.06600189 C-25.37748189 64.92305762 -25.34527897 59.78028382 -25.32983398 54.63720703 C-25.31464818 49.67031137 -25.28016825 44.70388447 -25.23252106 39.73719788 C-25.21772713 37.84591251 -25.20979021 35.9545602 -25.20894623 34.06321716 C-25.20656881 31.40606183 -25.1794277 28.75019383 -25.14672852 26.09326172 C-25.15427406 24.93015976 -25.15427406 24.93015976 -25.16197205 23.74356079 C-25.03762272 17.17775455 -22.97730597 12.00245014 -18.63598633 7.04833984 C-17.98500977 6.50951172 -17.3340332 5.97068359 -16.66333008 5.41552734 C-16.01493164 4.86123047 -15.3665332 4.30693359 -14.69848633 3.73583984 C-9.97098559 0.47853021 -5.62512386 -0.00729588 0 0 Z M2.39916992 16.29052734 C5.9799951 25.25514577 5.9799951 25.25514577 12.39916992 32.29052734 C17.67181055 34.08422629 23.29496958 33.87360916 28.79858398 33.72460938 C31.39916821 33.66552738 33.97891461 33.72404514 36.57885742 33.79443359 C45.57140039 33.92386485 45.57140039 33.92386485 53.29760742 29.92041016 C56.5321847 25.58088026 58.38880007 21.31645197 60.39916992 16.29052734 C41.25916992 16.29052734 22.11916992 16.29052734 2.39916992 16.29052734 Z M-7.60083008 34.29052734 C-7.60083008 65.31052734 -7.60083008 96.33052734 -7.60083008 128.29052734 C-0.83778182 118.14595496 0.17128809 106.34303939 0.09838867 94.48583984 C0.10432088 93.02667669 0.11157717 91.5675184 0.12007141 90.10836792 C0.13182748 87.08126034 0.12544598 84.05489401 0.10595703 81.02783203 C0.08294173 77.17097943 0.11004825 73.31631136 0.1510191 69.45967293 C0.1767058 66.45847945 0.17399058 63.45780292 0.16312599 60.45653915 C0.16165226 59.03492099 0.16917752 57.61326064 0.18637657 56.19174576 C0.27556421 47.40645687 -0.30725273 40.84685483 -6.60083008 34.29052734 C-6.93083008 34.29052734 -7.26083008 34.29052734 -7.60083008 34.29052734 Z M69.39916992 34.29052734 C62.60057476 41.39752864 62.50866233 48.81558708 62.60229492 58.19287109 C62.59823996 59.63904911 62.59240595 61.08522311 62.5848999 62.53138733 C62.57609009 65.55672289 62.58877406 68.58099068 62.61694336 71.60620117 C62.65085865 75.42934291 62.6310921 79.24995303 62.59622955 83.07300377 C62.47471104 98.87154496 62.54693177 113.6924505 69.39916992 128.29052734 C69.72916992 128.29052734 70.05916992 128.29052734 70.39916992 128.29052734 C70.39916992 97.27052734 70.39916992 66.25052734 70.39916992 34.29052734 C70.06916992 34.29052734 69.73916992 34.29052734 69.39916992 34.29052734 Z M16.39916992 48.29052734 C15.61720296 66.66675093 15.30581892 84.90038013 15.39916992 103.29052734 C25.62916992 103.29052734 35.85916992 103.29052734 46.39916992 103.29052734 C46.39916992 85.14052734 46.39916992 66.99052734 46.39916992 48.29052734 C36.49916992 48.29052734 26.59916992 48.29052734 16.39916992 48.29052734 Z M13.39916992 120.29052734 C12.07916992 124.58052734 10.75916992 128.87052734 9.39916992 133.29052734 C14.22347147 134.83965734 18.28432019 135.54633766 23.39916992 135.55615234 C25.34823242 135.56001953 25.34823242 135.56001953 27.33666992 135.56396484 C28.0044043 135.55977539 28.67213867 135.55558594 29.36010742 135.55126953 C31.39426487 135.54055318 33.42753942 135.55120244 35.46166992 135.56396484 C36.76104492 135.56138672 38.06041992 135.55880859 39.39916992 135.55615234 C40.57479492 135.55389648 41.75041992 135.55164063 42.96166992 135.54931641 C46.74170129 135.26474018 49.8014607 134.44578665 53.39916992 133.29052734 C52.07916992 129.00052734 50.75916992 124.71052734 49.39916992 120.29052734 C37.51916992 120.29052734 25.63916992 120.29052734 13.39916992 120.29052734 Z M-7.60083008 142.29052734 C-7.71802183 146.12359904 -7.78841085 149.95620342 -7.85083008 153.79052734 C-7.8843457 154.86818359 -7.91786133 155.94583984 -7.95239258 157.05615234 C-8.04993036 165.05425038 -6.95744536 170.46011547 -1.63598633 176.53271484 C-0.98500977 177.07154297 -0.3340332 177.61037109 0.33666992 178.16552734 C1.30926758 178.99697266 1.30926758 178.99697266 2.30151367 179.84521484 C7.76262092 183.60798893 12.80670677 183.61077864 19.23120117 183.62646484 C20.65706795 183.63645004 20.65706795 183.63645004 22.11174011 183.64663696 C24.11972118 183.65674413 26.12773571 183.66145458 28.13574219 183.66113281 C31.19091871 183.6654977 34.24464016 183.70181513 37.29956055 183.73974609 C39.25593585 183.74561649 41.21231797 183.74958439 43.16870117 183.75146484 C44.07417191 183.76583588 44.97964264 183.78020691 45.91255188 183.79501343 C52.99697273 183.74456935 58.27282173 182.03016696 63.64135742 177.32568359 C64.18018555 176.67470703 64.71901367 176.02373047 65.27416992 175.35302734 C65.8284668 174.70462891 66.38276367 174.05623047 66.95385742 173.38818359 C69.8367146 169.20414494 70.64842093 165.59549667 70.59448242 160.55224609 C70.58803711 159.48554688 70.5815918 158.41884766 70.57495117 157.31982422 C70.55819336 156.21703125 70.54143555 155.11423828 70.52416992 153.97802734 C70.51514648 152.85589844 70.50612305 151.73376953 70.49682617 150.57763672 C70.47331478 147.81504825 70.44045147 145.05289802 70.39916992 142.29052734 C70.06916992 142.95052734 69.73916992 143.61052734 69.39916992 144.29052734 C66.42266971 146.00773901 63.24274604 147.1674734 60.02416992 148.35302734 C59.10893555 148.69462891 58.19370117 149.03623047 57.25073242 149.38818359 C49.69643249 151.77865385 41.97238515 151.51067474 34.13427734 151.53076172 C31.86737362 151.54039684 29.60140565 151.57143242 27.3347168 151.60302734 C16.13593107 151.68481059 4.56407585 151.47383199 -4.60083008 144.29052734 C-5.26083008 144.29052734 -5.92083008 144.29052734 -6.60083008 144.29052734 C-6.93083008 143.63052734 -7.26083008 142.97052734 -7.60083008 142.29052734 Z " fill="#000000" transform="translate(224.600830078125,55.70947265625)"/>
<path d="M0 0 C1.12298744 -0.01007584 1.12298744 -0.01007584 2.2686615 -0.02035522 C4.73540955 -0.03930033 7.20188496 -0.04325778 9.66870117 -0.04541016 C11.39117035 -0.05184105 13.11363844 -0.05856963 14.83610535 -0.06558228 C18.4447991 -0.0775467 22.05339719 -0.08126401 25.66210938 -0.08007812 C30.27211697 -0.07987511 34.88150691 -0.10716288 39.49136829 -0.14162254 C43.04915651 -0.1639303 46.60679708 -0.16791447 50.16464806 -0.16685867 C51.8634116 -0.16920935 53.56217953 -0.17800268 55.26087379 -0.19352341 C73.11348344 -0.34135471 73.11348344 -0.34135471 80.64135742 6.25537109 C81.18018555 6.90634766 81.71901367 7.55732422 82.27416992 8.22802734 C82.8284668 8.87642578 83.38276367 9.52482422 83.95385742 10.19287109 C87.42167308 15.22589004 87.68021004 19.87128841 87.6262207 25.84448242 C87.62651276 26.69377319 87.62680481 27.54306396 87.62710571 28.41809082 C87.62571626 31.2155186 87.61017315 34.01267754 87.59448242 36.81005859 C87.59075093 38.75347244 87.5879046 40.69688817 87.58590698 42.64030457 C87.57828129 47.74817119 87.55864189 52.85592355 87.53649902 57.96374512 C87.5160177 63.1787766 87.50690037 68.39382659 87.49682617 73.60888672 C87.47539504 83.83615038 87.44127189 94.06332935 87.39916992 104.29052734 C88.34791992 104.39365234 89.29666992 104.49677734 90.27416992 104.60302734 C93.39916992 105.29052734 93.39916992 105.29052734 95.39916992 108.29052734 C96.0698286 115.33244351 96.0698286 115.33244351 93.64916992 118.79052734 C91.39916992 120.29052734 91.39916992 120.29052734 87.39916992 120.29052734 C87.40805237 120.87997635 87.41693481 121.46942535 87.42608643 122.07673645 C87.51515576 128.25817078 87.57514928 134.43942034 87.61889648 140.62133789 C87.63890819 142.92284562 87.66612623 145.22430317 87.70092773 147.52563477 C87.74990691 150.84973596 87.77224393 154.1731601 87.78979492 157.49755859 C87.82076263 159.02012016 87.82076263 159.02012016 87.85235596 160.57344055 C87.85584697 171.89939873 84.23239827 181.08502676 76.39916992 189.29052734 C67.25005206 198.02456235 57.22168168 200.92232186 44.77416992 200.82177734 C43.70602051 200.82560425 42.63787109 200.82943115 41.53735352 200.83337402 C39.2953191 200.83607705 37.05325227 200.82882975 34.8112793 200.81201172 C31.4075595 200.79058017 28.00595019 200.81187002 24.60229492 200.83740234 C22.409582 200.83475878 20.21687037 200.82963322 18.02416992 200.82177734 C16.52055908 200.83392273 16.52055908 200.83392273 14.98657227 200.84631348 C3.74189275 200.69934568 -5.4494699 197.07207156 -13.60083008 189.29052734 C-22.41662839 180.0557604 -25.2468522 170.05443818 -24.99145508 157.49755859 C-24.98579529 156.42551682 -24.9801355 155.35347504 -24.9743042 154.24894714 C-24.95213522 150.86649546 -24.9019757 147.4851521 -24.85083008 144.10302734 C-24.83073991 141.7924959 -24.81249359 139.48194765 -24.79614258 137.17138672 C-24.75233474 131.54406337 -24.68562141 125.91737457 -24.60083008 120.29052734 C-25.54958008 120.18740234 -26.49833008 120.08427734 -27.47583008 119.97802734 C-30.60083008 119.29052734 -30.60083008 119.29052734 -32.60083008 116.29052734 C-33.27148876 109.24861118 -33.27148876 109.24861118 -30.85083008 105.79052734 C-28.60083008 104.29052734 -28.60083008 104.29052734 -24.60083008 104.29052734 C-24.60971252 103.21834961 -24.61859497 102.14617187 -24.62774658 101.04150391 C-24.70896096 90.91934806 -24.76885716 80.79725864 -24.80807877 70.67485046 C-24.82892117 65.47124615 -24.85717773 60.26790564 -24.90258789 55.06445312 C-24.94616491 50.03940246 -24.96999235 45.01460497 -24.98033905 39.98937988 C-24.98770915 38.07568377 -25.00210123 36.16200094 -25.02375031 34.24841309 C-25.05294207 31.56032766 -25.05677953 28.87327794 -25.05493164 26.18505859 C-25.0765033 25.00793053 -25.0765033 25.00793053 -25.09851074 23.80702209 C-25.04954274 17.19001866 -23.00906847 12.038696 -18.63598633 7.04833984 C-17.98500977 6.50951172 -17.3340332 5.97068359 -16.66333008 5.41552734 C-16.01493164 4.86123047 -15.3665332 4.30693359 -14.69848633 3.73583984 C-9.97098559 0.47853021 -5.62512386 -0.00729588 0 0 Z M2.39916992 17.29052734 C7.20950438 24.92171379 7.20950438 24.92171379 12.39916992 32.29052734 C15.29663786 32.78257904 17.81219676 33.01682748 20.72338867 33.06787109 C21.54362015 33.08829971 22.36385162 33.10872833 23.2089386 33.129776 C24.94624285 33.16317162 26.68379894 33.18513023 28.42138672 33.1965332 C31.06364757 33.2277553 33.69490289 33.33878564 36.3347168 33.45263672 C45.45073474 33.82525107 45.45073474 33.82525107 53.31958008 29.91601562 C55.38470856 27.1129081 56.95128909 24.45063124 58.39916992 21.29052734 C59.05916992 19.97052734 59.71916992 18.65052734 60.39916992 17.29052734 C41.25916992 17.29052734 22.11916992 17.29052734 2.39916992 17.29052734 Z M70.39916992 32.29052734 C63.43742693 40.48636423 62.34596887 47.83156668 62.46948242 58.28271484 C62.4647472 59.71884968 62.45793726 61.15497898 62.44918823 62.59109497 C62.43892673 65.59203844 62.45364831 68.59151407 62.48657227 71.59228516 C62.52610418 75.37292816 62.50309141 79.15008207 62.46240616 82.93059921 C62.30639801 100.13386668 63.32300985 115.28454339 70.39916992 131.29052734 C70.72916992 131.29052734 71.05916992 131.29052734 71.39916992 131.29052734 C71.39916992 98.62052734 71.39916992 65.95052734 71.39916992 32.29052734 C71.06916992 32.29052734 70.73916992 32.29052734 70.39916992 32.29052734 Z M-7.60083008 34.29052734 C-7.60083008 65.31052734 -7.60083008 96.33052734 -7.60083008 128.29052734 C-0.83778182 118.14595496 0.17128809 106.34303939 0.09838867 94.48583984 C0.10432088 93.02667669 0.11157717 91.5675184 0.12007141 90.10836792 C0.13182748 87.08126034 0.12544598 84.05489401 0.10595703 81.02783203 C0.08294173 77.17097943 0.11004825 73.31631136 0.1510191 69.45967293 C0.1767058 66.45847945 0.17399058 63.45780292 0.16312599 60.45653915 C0.16165226 59.03492099 0.16917752 57.61326064 0.18637657 56.19174576 C0.27556421 47.40645687 -0.30725273 40.84685483 -6.60083008 34.29052734 C-6.93083008 34.29052734 -7.26083008 34.29052734 -7.60083008 34.29052734 Z M16.39916992 49.29052734 C16.39916992 67.44052734 16.39916992 85.59052734 16.39916992 104.29052734 C26.62916992 104.29052734 36.85916992 104.29052734 47.39916992 104.29052734 C47.06916992 86.14052734 46.73916992 67.99052734 46.39916992 49.29052734 C36.49916992 49.29052734 26.59916992 49.29052734 16.39916992 49.29052734 Z M13.39916992 120.29052734 C12.07916992 124.58052734 10.75916992 128.87052734 9.39916992 133.29052734 C14.32450356 134.93230522 18.26949843 135.72842158 23.33666992 135.97802734 C24.07377197 136.01710205 24.81087402 136.05617676 25.5703125 136.09643555 C35.11145827 136.51597239 44.27358403 136.33238931 53.39916992 133.29052734 C52.07916992 129.00052734 50.75916992 124.71052734 49.39916992 120.29052734 C37.51916992 120.29052734 25.63916992 120.29052734 13.39916992 120.29052734 Z M70.39916992 141.29052734 C69.78041992 142.03302734 69.16166992 142.77552734 68.52416992 143.54052734 C62.69839023 149.51917006 52.79883034 151.0933805 44.80322266 151.45166016 C41.24681893 151.48927323 37.69085963 151.52164715 34.13427734 151.53076172 C31.86737362 151.54039684 29.60140565 151.57143242 27.3347168 151.60302734 C15.75536693 151.68743591 4.22791991 151.061444 -5.60083008 144.29052734 C-6.26083008 143.63052734 -6.92083008 142.97052734 -7.60083008 142.29052734 C-7.71802183 146.12359904 -7.78841085 149.95620342 -7.85083008 153.79052734 C-7.8843457 154.86818359 -7.91786133 155.94583984 -7.95239258 157.05615234 C-8.04993036 165.05425038 -6.95744536 170.46011547 -1.63598633 176.53271484 C-0.98500977 177.07154297 -0.3340332 177.61037109 0.33666992 178.16552734 C1.30926758 178.99697266 1.30926758 178.99697266 2.30151367 179.84521484 C7.76262092 183.60798893 12.80670677 183.61077864 19.23120117 183.62646484 C20.65706795 183.63645004 20.65706795 183.63645004 22.11174011 183.64663696 C24.11972118 183.65674413 26.12773571 183.66145458 28.13574219 183.66113281 C31.19091871 183.6654977 34.24464016 183.70181513 37.29956055 183.73974609 C39.25593585 183.74561649 41.21231797 183.74958439 43.16870117 183.75146484 C44.07417191 183.76583588 44.97964264 183.78020691 45.91255188 183.79501343 C52.99697273 183.74456935 58.27282173 182.03016696 63.64135742 177.32568359 C70.72446804 168.76833704 71.56817154 161.29507773 71.46166992 150.41552734 C71.4571582 149.53638672 71.45264648 148.65724609 71.44799805 147.75146484 C71.43629329 145.59778931 71.41836061 143.44414918 71.39916992 141.29052734 C71.06916992 141.29052734 70.73916992 141.29052734 70.39916992 141.29052734 Z " fill="#000000" transform="translate(392.600830078125,223.70947265625)"/>
<path d="M0 0 C2.15370198 3.23055297 2.25471173 4.11395614 2.2784729 7.84049988 C2.28963638 8.83749405 2.30079987 9.83448822 2.31230164 10.86169434 C2.31446182 11.95429565 2.31662201 13.04689697 2.31884766 14.17260742 C2.32889328 15.32396683 2.3389389 16.47532623 2.34928894 17.66157532 C2.38023806 21.47620127 2.39718881 25.29075667 2.4140625 29.10546875 C2.43276469 31.74677645 2.45233738 34.38807812 2.4727478 37.02937317 C2.51955152 43.27661557 2.55628786 49.52387511 2.58942068 55.77120334 C2.62763086 62.88364861 2.67704388 69.99600219 2.72740483 77.10837018 C2.83074831 91.73884288 2.92000085 106.36938128 3 121 C3.99 120.34 4.98 119.68 6 119 C12.90410959 118.34246575 12.90410959 118.34246575 16.5 120.5 C18.19231675 123.32052792 18.75699258 125.57079785 18.5625 128.87109375 C17.41194619 133.22562033 14.14020753 135.93507141 11 139 C10.05009728 139.96941206 9.1023011 140.94089127 8.15625 141.9140625 C-0.54602363 150.79945153 -0.54602363 150.79945153 -5.625 151.5 C-11.37282125 151.38648827 -14.17274552 147.92125723 -18 144 C-18.96941206 143.05009728 -19.94089127 142.1023011 -20.9140625 141.15625 C-29.8898867 132.36540495 -29.8898867 132.36540495 -30.3125 127.125 C-30.25340627 124.17031347 -30.06564964 123.10941607 -28.5 120.5 C-24.77354157 118.26412494 -22.32088243 118.58848739 -18 119 C-17.01 119.66 -16.02 120.32 -15 121 C-14.99853344 120.39554676 -14.99706688 119.79109352 -14.99555588 119.16832352 C-14.95850876 104.46254405 -14.89952201 89.75696591 -14.81609726 75.05138016 C-14.77628298 67.93984853 -14.74390274 60.82842794 -14.72900391 53.71679688 C-14.71461117 46.85669009 -14.67952752 39.9969398 -14.63169098 33.13698578 C-14.61682664 30.5167006 -14.60895611 27.89636632 -14.60811615 25.27603912 C-14.60576003 21.6123616 -14.57878774 17.94964542 -14.54589844 14.28613281 C-14.5509288 13.19712677 -14.55595917 12.10812073 -14.56114197 10.9861145 C-14.4590058 3.65692977 -14.4590058 3.65692977 -12.15338135 0.3571167 C-7.5574554 -2.53935487 -4.96796899 -1.80653418 0 0 Z " fill="#000000" transform="translate(262,273)"/>
</svg>
