<?xml version="1.0" encoding="UTF-8"?>
<svg version="1.1" xmlns="http://www.w3.org/2000/svg" width="512" height="512">
<path d="M0 0 C7.13315952 3.31801747 12.16872666 7.82266974 15.73828125 14.890625 C17.6292924 20.1887884 17.86443366 25.33970371 15.72134197 30.58800256 C12.74985256 36.83798829 9.32283552 41.37149711 4.37332153 46.16738892 C3.65372218 46.8849103 2.93412283 47.60243169 2.19271743 48.34169614 C-0.20082796 50.72249031 -2.61171728 53.08488474 -5.02294922 55.44775391 C-6.7505666 57.15921344 -8.4770127 58.87185598 -10.20237732 60.58558655 C-13.90918785 64.26311253 -17.62323117 67.93316333 -21.34350204 71.59706497 C-26.72569491 76.89851872 -32.08952438 82.21826177 -37.44827963 87.54339425 C-46.14927911 96.18965246 -54.85813163 104.82794597 -63.57519531 113.45800781 C-64.0959877 113.9736119 -64.61678009 114.48921599 -65.15335406 115.02044444 C-70.96977917 120.77844934 -76.78888241 126.53373283 -82.61175537 132.28521729 C-83.13603202 132.8030715 -83.66030866 133.32092571 -84.20047248 133.85447248 C-84.72428205 134.37185957 -85.24809162 134.88924666 -85.78777421 135.42231214 C-86.84419605 136.46578335 -87.90061507 137.50925742 -88.95703125 138.55273438 C-89.47900726 139.06830814 -90.00098327 139.58388191 -90.53877674 140.11507912 C-99.23931352 148.70982106 -107.92243942 157.32191381 -116.59167302 165.94822824 C-121.93557376 171.26424185 -127.29380383 176.56496183 -132.67138608 181.84690534 C-136.78572222 185.89055338 -140.87668191 189.9571966 -144.95932198 194.03281975 C-146.63858999 195.70160555 -148.32562901 197.36261232 -150.02079964 199.01524162 C-152.3301594 201.26879725 -154.61030901 203.54833302 -156.88522339 205.83657837 C-157.56564158 206.48737039 -158.24605978 207.13816242 -158.94709671 207.80867541 C-162.26724929 211.08618373 -162.26724929 211.08618373 -163.55159521 215.40088701 C-163.2910771 217.44229202 -162.85843413 219.37616337 -162.375 221.375 C-162.28839428 223.45707914 -162.24063634 225.54119032 -162.23455811 227.62506104 C-162.22884796 228.80825928 -162.22313782 229.99145752 -162.21725464 231.21051025 C-162.21557785 233.12159576 -162.21557785 233.12159576 -162.21386719 235.07128906 C-162.2092311 236.44527314 -162.2042054 237.81925595 -162.19882202 239.1932373 C-162.18578314 242.90365717 -162.17927133 246.61405902 -162.17481136 250.32449818 C-162.1718704 252.64424948 -162.167764 254.96399596 -162.16330719 257.28374481 C-162.14966266 264.54739044 -162.1399778 271.81102492 -162.1361053 279.07468247 C-162.13161398 287.45122805 -162.11400382 295.82761131 -162.0851047 304.20410752 C-162.0635081 310.68920674 -162.05340232 317.17426017 -162.05206418 323.65939498 C-162.05101588 327.52938459 -162.04510131 331.39922098 -162.02724457 335.26917267 C-162.01079591 338.90376825 -162.00859253 342.53809475 -162.01738358 346.17271423 C-162.01852348 348.14236401 -162.00478652 350.11200476 -161.9906311 352.081604 C-161.99620026 353.25352295 -162.00176941 354.42544189 -162.00750732 355.63287354 C-162.00530748 357.16036917 -162.00530748 357.16036917 -162.0030632 358.7187233 C-162.4355314 361.80729967 -163.20898119 363.15812022 -165.375 365.375 C-169.29336981 366.68112327 -173.02834544 366.53072733 -177.11328125 366.53613281 C-178.00622894 366.54109772 -178.89917664 366.54606262 -179.81918335 366.55117798 C-182.7752967 366.5657929 -185.73135645 366.57259937 -188.6875 366.578125 C-190.73868817 366.5838756 -192.78987632 366.58963335 -194.84106445 366.59539795 C-199.14176687 366.60590506 -203.44245061 366.61175009 -207.74316406 366.61523438 C-213.2615873 366.62072818 -218.77976492 366.64477635 -224.29811096 366.67320633 C-228.53422781 366.69179937 -232.77028499 366.69703646 -237.00643921 366.69857025 C-239.04146675 366.70160325 -241.07649309 366.70965345 -243.11148071 366.72275543 C-245.95341913 366.73975142 -248.79475058 366.7379519 -251.63671875 366.73144531 C-252.48148773 366.7406601 -253.32625671 366.74987488 -254.19662476 366.7593689 C-259.92290105 366.71816087 -259.92290105 366.71816087 -262.05207825 365.10203171 C-264.70891523 361.63361667 -264.50156252 357.99961282 -264.50871277 353.76022339 C-264.51297775 352.61643723 -264.51724274 351.47265106 -264.52163696 350.29420471 C-264.52095718 348.41776527 -264.52095718 348.41776527 -264.52026367 346.50341797 C-264.52325677 345.16931565 -264.52665964 343.8352142 -264.53044128 342.50111389 C-264.53927365 338.87888938 -264.54161918 335.25668849 -264.54225707 331.63445425 C-264.54296841 329.36828078 -264.54510439 327.1021133 -264.54775429 324.83594131 C-264.55700763 316.92057159 -264.56108949 309.0052187 -264.56030273 301.08984375 C-264.55970306 293.72816603 -264.57023312 286.36656185 -264.5860464 279.00490272 C-264.59915864 272.67350449 -264.60448504 266.34213016 -264.60384732 260.01071846 C-264.60359327 256.23441301 -264.60639274 252.45817281 -264.61702538 248.68188095 C-264.62676764 245.12451362 -264.62674394 241.56727307 -264.61950874 238.00990105 C-264.61797854 236.09624995 -264.62626812 234.1825987 -264.63494873 232.26896667 C-264.57739093 216.34148566 -260.85882869 201.99600753 -249.375 190.375 C-238.90813258 181.21246529 -227.33502966 176.17257644 -213.4375 176.25 C-212.74720703 176.24613281 -212.05691406 176.24226562 -211.34570312 176.23828125 C-208.21152906 176.24422281 -205.58655216 176.30502117 -202.59400368 177.29491901 C-198.91985992 177.38632278 -198.52625128 177.05719662 -195.88361168 174.73935986 C-194.55804336 173.44069066 -193.25179832 172.12213394 -191.96078491 170.78910828 C-191.23569186 170.06858507 -190.5105988 169.34806185 -189.76353323 168.60570461 C-187.32848806 166.17752769 -184.91937374 163.72514028 -182.50927734 161.2722168 C-180.77258086 159.53027375 -179.03432733 157.78988187 -177.29463196 156.05093384 C-173.54707972 152.29819042 -169.81047322 148.53503693 -166.08320236 144.76218224 C-160.69087052 139.30411865 -155.27836504 133.86642886 -149.86052509 128.43369827 C-141.06684748 119.61493525 -132.28818496 110.78138473 -123.51953125 101.93774414 C-115.00852549 93.35404605 -106.49305971 84.77482805 -97.96972656 76.20336914 C-97.4448663 75.67553901 -96.92000604 75.14770887 -96.37924092 74.60388388 C-90.64986758 68.84239323 -84.91897741 63.08241404 -79.18660927 57.32390308 C-78.68288105 56.81786865 -78.17915284 56.31183422 -77.66016013 55.79046542 C-75.64649186 53.76760189 -73.63282048 51.74474148 -71.61896951 49.72205982 C-65.72091129 43.79802402 -59.82759744 37.86935699 -53.94265188 31.93229339 C-49.8155775 27.76883538 -45.68395129 23.60991666 -41.55072594 19.45256424 C-39.85418962 17.7442687 -38.15941819 16.03421838 -36.46652031 14.32231712 C-34.16064909 11.99091784 -31.84873525 9.66568065 -29.5352478 7.34184265 C-28.86229404 6.65828837 -28.18934027 5.97473408 -27.49599397 5.27046603 C-26.87516895 4.64930622 -26.25434394 4.0281464 -25.61470604 3.38816357 C-25.08179337 2.85069695 -24.5488807 2.31323033 -23.99981916 1.75947684 C-17.48244825 -3.7938483 -7.6067046 -2.80001396 0 0 Z M-11.375 13.375 C-12.03464994 15.71035647 -12.03464994 15.71035647 -12.4453125 18.546875 C-12.61933594 19.60390625 -12.79335938 20.6609375 -12.97265625 21.75 C-13.14667969 22.86375 -13.32070313 23.9775 -13.5 25.125 C-13.68175781 26.22328125 -13.86351562 27.3215625 -14.05078125 28.453125 C-14.80817728 33.14556355 -15.48676625 37.61137047 -15.375 42.375 C-8.74272453 37.82715396 -1.55044686 32.54241191 1.25 24.6875 C1.90142274 21.38901326 1.90142274 21.38901326 0.4375 18.625 C-0.160625 17.8825 -0.75875 17.14 -1.375 16.375 C-1.82875 15.7975 -2.2825 15.22 -2.75 14.625 C-5.50187219 12.50817524 -8.23571847 11.80535923 -11.375 13.375 Z M-29.375 28.375 C-39.47959782 36.25931895 -47.79182597 43.58109023 -50.07128906 56.64697266 C-50.96667957 63.91105764 -51.4168402 71.05701389 -51.375 78.375 C-49.77824674 77.06211398 -48.19168826 75.73591438 -46.64038086 74.36962891 C-45.01378057 72.93743531 -43.35393101 71.54267603 -41.67407227 70.17333984 C-33.19476922 62.68141741 -31.32836365 56.33649129 -30.125 45.3125 C-29.9298853 43.88550054 -29.73068693 42.45905331 -29.52734375 41.03320312 C-28.21026664 34.5472675 -28.21026664 34.5472675 -29.375 28.375 Z M-76.98974609 74.11938477 C-86.8018732 84.44514308 -88.00362714 99.62102655 -88.375 113.375 C-88.045 114.035 -87.715 114.695 -87.375 115.375 C-77.27040218 107.49068105 -68.95817403 100.16890977 -66.67871094 87.10302734 C-65.78332043 79.83894236 -65.3331598 72.69298611 -65.375 65.375 C-69.24305275 65.375 -74.33733791 71.67208228 -76.98974609 74.11938477 Z M-102.375 101.375 C-105.19595389 103.99098199 -107.97554121 106.64732455 -110.75 109.3125 C-111.5440625 110.04791016 -112.338125 110.78332031 -113.15625 111.54101562 C-118.37578686 116.60573572 -120.60623808 120.17501706 -121.375 127.375 C-121.66536606 129.08032184 -121.96110262 130.78473642 -122.26171875 132.48828125 C-122.53198179 134.22083708 -122.79889183 135.95391916 -123.0625 137.6875 C-123.27616211 139.00717773 -123.27616211 139.00717773 -123.49414062 140.35351562 C-123.62369141 141.20236328 -123.75324219 142.05121094 -123.88671875 142.92578125 C-124.00490967 143.68544189 -124.12310059 144.44510254 -124.24487305 145.2277832 C-124.38263255 147.5009443 -124.04222239 149.20936746 -123.375 151.375 C-120.55404611 148.75901801 -117.77445879 146.10267545 -115 143.4375 C-114.2059375 142.70208984 -113.411875 141.96667969 -112.59375 141.20898438 C-107.37421314 136.14426428 -105.14376192 132.57498294 -104.375 125.375 C-104.08463394 123.66967816 -103.78889738 121.96526358 -103.48828125 120.26171875 C-103.21801821 118.52916292 -102.95110817 116.79608084 -102.6875 115.0625 C-102.47383789 113.74282227 -102.47383789 113.74282227 -102.25585938 112.39648438 C-102.12630859 111.54763672 -101.99675781 110.69878906 -101.86328125 109.82421875 C-101.74509033 109.06455811 -101.62689941 108.30489746 -101.50512695 107.5222168 C-101.36736745 105.2490557 -101.70777761 103.54063254 -102.375 101.375 Z M-150.98925781 148.47924805 C-162.16451965 160.09978369 -162.63596999 173.95602338 -162.375 189.375 C-160.81807202 188.10773304 -159.27674852 186.81967541 -157.78125 185.48046875 C-156.4936102 184.35378393 -155.19395401 183.23732484 -153.83203125 182.20166016 C-144.90026654 175.4013393 -141.26624784 169.3278181 -139.625 158.125 C-139.11622634 154.21397665 -138.72507252 150.30297912 -138.375 146.375 C-138.18689198 144.62970638 -137.99461784 142.88485326 -137.796875 141.140625 C-137.65765625 139.89796875 -137.5184375 138.6553125 -137.375 137.375 C-141.6118557 137.375 -148.0885805 145.71834718 -150.98925781 148.47924805 Z M-180.39428711 179.2331543 C-181.34548683 180.1699427 -181.34548683 180.1699427 -182.31590271 181.12565613 C-183.00442825 181.80993179 -183.6929538 182.49420746 -184.40234375 183.19921875 C-185.10645889 183.89763382 -185.81057404 184.59604889 -186.536026 185.31562805 C-188.0295932 186.79972443 -189.52169097 188.28530083 -191.01245117 189.7722168 C-193.29220573 192.04229189 -195.58238945 194.30148132 -197.87304688 196.56054688 C-199.32097312 198.00194086 -200.76825965 199.4439778 -202.21484375 200.88671875 C-202.90134506 201.56087326 -203.58784637 202.23502777 -204.29515076 202.92961121 C-208.44668076 207.10069156 -211.375 210.21741627 -211.375 216.375 C-209.97747905 220.56756285 -208.08482973 222.03918128 -204.375 224.375 C-200.96200042 225.3755836 -200.96200042 225.3755836 -197.375 224.375 C-195.20937111 222.94160219 -193.44215618 221.37989425 -191.60180664 219.54711914 C-189.375 217.375 -189.375 217.375 -187.09350586 215.47314453 C-180.16636906 209.40834024 -178.72336724 204.16895628 -177.8125 195.1875 C-177.66232422 194.03830078 -177.51214844 192.88910156 -177.35742188 191.70507812 C-176.71096025 186.56019686 -176.3060585 181.56393231 -176.375 176.375 C-178.16513979 176.375 -179.17774852 178.03144287 -180.39428711 179.2331543 Z M-241.625 204.6875 C-248.11875159 212.66755986 -249.53205054 221.23379466 -249.48852539 231.2043457 C-249.48867142 232.08289719 -249.48881744 232.96144867 -249.4889679 233.86662292 C-249.48827299 236.76136776 -249.48050036 239.6560477 -249.47265625 242.55078125 C-249.47079057 244.56145696 -249.46936737 246.57213312 -249.46836853 248.58280945 C-249.46455517 253.86818706 -249.45473495 259.15353708 -249.44366455 264.43890381 C-249.43162393 270.78407471 -249.42704257 277.12925484 -249.42121124 283.4744339 C-249.41152258 293.10797511 -249.39235774 302.7414558 -249.375 312.375 C-225.615 312.375 -201.855 312.375 -177.375 312.375 C-177.375 284.325 -177.375 256.275 -177.375 227.375 C-179.685 229.355 -181.995 231.335 -184.375 233.375 C-191.62287653 238.41802088 -198.66316196 239.66841399 -207.375 238.375 C-214.18728628 236.41658482 -218.67121542 233.0189725 -222.25 226.8984375 C-225.5676778 219.45670187 -226.29763853 212.04315984 -223.375 204.375 C-220.67290871 199.54983698 -217.03399901 195.49747222 -213.375 191.375 C-224.44387823 190.17836452 -234.4259856 196.93195331 -241.625 204.6875 Z M-249.375 327.375 C-249.375 335.295 -249.375 343.215 -249.375 351.375 C-225.615 351.375 -201.855 351.375 -177.375 351.375 C-177.375 343.455 -177.375 335.535 -177.375 327.375 C-201.135 327.375 -224.895 327.375 -249.375 327.375 Z " fill="#000000" transform="translate(291.375,73.625)"/>
<path d="M0 0 C1.58687622 0.39554077 1.58687622 0.39554077 3.20581055 0.79907227 C10.75258435 2.9357493 14.618959 5.75662651 19.1875 12.0625 C19.77426514 12.82256348 20.36103027 13.58262695 20.96557617 14.36572266 C22.13173228 15.876902 23.2878031 17.39592903 24.43261719 18.92333984 C26.48418047 21.64150142 28.63649698 24.25545629 30.8125 26.875 C32.2086185 28.58310029 33.60445282 30.2914329 35 32 C36.58304748 33.93773357 38.16638168 35.87523293 39.75 37.8125 C40.79414062 39.09060547 40.79414062 39.09060547 41.859375 40.39453125 C42.56578125 41.25433594 43.2721875 42.11414063 44 43 C44.71285156 44.06476563 45.42570312 45.12953125 46.16015625 46.2265625 C50.09736003 50.07169961 53.36583412 50.11321101 58.6875 50.5625 C66.29767253 51.45128927 72.5616171 52.57113291 79 57 C79.57621094 57.38027344 80.15242188 57.76054687 80.74609375 58.15234375 C86.7080449 62.5680532 90.02002509 69.00933405 92 76 C92.37387637 78.993675 92.49939068 81.98240853 92.609375 84.99609375 C92.64649597 85.86745468 92.68361694 86.73881561 92.72186279 87.63658142 C93.08522589 96.84306074 93.22090791 106.05082791 93.24023438 115.26391602 C93.25000841 118.06491059 93.28123587 120.86518912 93.3125 123.66601562 C93.40687653 139.89487232 93.12083186 157.84403009 84.125 171.9375 C80.38661697 175.56593059 77.33762053 176.93527643 72.125 177.1875 C71.09375 177.125625 70.0625 177.06375 69 177 C69.03480469 177.61746094 69.06960938 178.23492187 69.10546875 178.87109375 C69.33173751 185.95007343 69.06722648 192.52115439 64.1953125 198.046875 C56.34426756 205.21650849 49.23066962 205.3728262 38.96313477 205.37060547 C36.70446706 205.37496723 34.44777421 205.41128861 32.18945312 205.44921875 C23.43330229 205.5186456 16.99846827 205.13965808 9.9765625 199.32421875 C3.94656759 192.02199949 4 186.77008161 4 177 C-48.47 177 -100.94 177 -155 177 C-155 180.96 -155 184.92 -155 189 C-157.0298213 195.73046009 -160.39973455 199.26435483 -166.171875 203.1171875 C-172.05947398 205.98412801 -178.49341524 205.56006792 -184.89086914 205.46655273 C-187.06148487 205.43751358 -189.22966236 205.445986 -191.40039062 205.45898438 C-201.52636435 205.41384351 -208.51696911 204.48303089 -216 197 C-219.93973603 190.69642235 -219.29446251 184.25250268 -219 177 C-220.19625 177.0825 -221.3925 177.165 -222.625 177.25 C-228.18996509 177.24016791 -231.21588798 174.73163814 -235.125 170.9375 C-248.05610896 150.67876262 -244.30210756 120.83650899 -243.73754883 97.81591797 C-243.70394024 96.34468133 -243.67602562 94.87330451 -243.65356445 93.40185547 C-243.44310422 79.83985753 -242.16997477 69.28266408 -232.30078125 59.27734375 C-226.18814962 53.68668965 -220.43764387 51.85367059 -212.32324219 51.1796875 C-203.75613724 50.54720868 -203.75613724 50.54720868 -196.16796875 46.97265625 C-194.18505647 44.41627443 -192.59991905 41.80971006 -191 39 C-189.65786859 37.28624257 -188.28071954 35.59949693 -186.875 33.9375 C-185.76318359 32.58205078 -185.76318359 32.58205078 -184.62890625 31.19921875 C-183.75261424 30.13280422 -182.87631105 29.06639888 -182 28 C-181.44940918 27.3292041 -180.89881836 26.6584082 -180.33154297 25.96728516 C-178.49278304 23.72743173 -176.65279994 21.48858824 -174.8125 19.25 C-174.23032715 18.54093506 -173.6481543 17.83187012 -173.04833984 17.10131836 C-171.91663506 15.72604752 -170.78161241 14.3534993 -169.64306641 12.98388672 C-168.556237 11.67161692 -167.48014068 10.3503761 -166.41552734 9.02001953 C-154.38170404 -5.71190149 -126.60702324 -6.6098565 -109 -8.4375 C-107.00043848 -8.62961969 -105.00045407 -8.81740822 -103 -9 C-102.15824219 -9.07734375 -101.31648437 -9.1546875 -100.44921875 -9.234375 C-66.87818259 -12.09148446 -32.50682202 -8.54848017 0 0 Z M-139.36010742 12.35668945 C-141.20385599 12.80598914 -143.05682757 13.21833964 -144.9152832 13.60229492 C-151.44642768 15.08283384 -154.76558324 16.71409285 -158.4375 22.3125 C-159.34154787 23.5728335 -160.24922629 24.83056915 -161.16015625 26.0859375 C-161.61922363 26.73143555 -162.07829102 27.37693359 -162.55126953 28.04199219 C-165.42293406 31.9231431 -168.66501097 35.49537043 -171.85327148 39.11645508 C-175.1666408 42.91854209 -178.12013139 46.85822533 -181 51 C-179.87980469 51.33773437 -178.75960937 51.67546875 -177.60546875 52.0234375 C-176.13273364 52.47370046 -174.66008169 52.92423553 -173.1875 53.375 C-172.08051758 53.70757812 -172.08051758 53.70757812 -170.95117188 54.046875 C-169.88286133 54.37558594 -169.88286133 54.37558594 -168.79296875 54.7109375 C-167.81106567 55.00943604 -167.81106567 55.00943604 -166.80932617 55.31396484 C-165 56 -165 56 -162 58 C-159.25942717 58.07819832 -159.25942717 58.07819832 -156.1796875 57.71875 C-155.01663086 57.60917969 -153.85357422 57.49960937 -152.65527344 57.38671875 C-151.4490332 57.25910156 -150.24279297 57.13148438 -149 57 C-147.86336914 56.88269531 -146.72673828 56.76539063 -145.55566406 56.64453125 C-140.91368389 56.15185889 -136.27518344 55.63008794 -131.63671875 55.10546875 C-114.15426202 53.17596684 -96.88708375 52.79794895 -79.3125 52.8125 C-78.08423492 52.81277191 -76.85596985 52.81304382 -75.59048462 52.81332397 C-51.98854286 52.83739953 -28.94550145 54.06797049 -5.51635742 57.03442383 C6.00276954 58.59739565 6.00276954 58.59739565 17.0625 55.625 C21.35655403 53.70383261 25.44136516 52.13965871 30 51 C27.25714854 46.72344274 24.27398009 42.83464136 20.9375 39 C16.3104219 33.61583551 11.87612632 28.10637915 7.52905273 22.49414062 C3.41474315 17.14220824 3.41474315 17.14220824 -2.6015625 14.6328125 C-3.55522705 14.38877686 -4.5088916 14.14474121 -5.49145508 13.89331055 C-6.5255249 13.63976807 -7.55959473 13.38622559 -8.625 13.125 C-9.68936279 12.86178955 -10.75372559 12.5985791 -11.8503418 12.32739258 C-32.66988971 7.31853431 -53.23682572 4.76596981 -74.625 4.75 C-75.44091614 4.74932526 -76.25683228 4.74865051 -77.09747314 4.74795532 C-98.32885409 4.77570097 -118.72528924 7.2676116 -139.36010742 12.35668945 Z M-223 71 C-227.03858689 76.34839885 -228.11757467 80.08356297 -228.31640625 86.703125 C-228.3373233 87.36918762 -228.35824036 88.03525024 -228.37979126 88.72149658 C-228.44614917 90.89754461 -228.5050365 93.07369995 -228.5625 95.25 C-228.58301422 95.99241943 -228.60352844 96.73483887 -228.62466431 97.49975586 C-231.54599098 130.38821091 -231.54599098 130.38821091 -223 161 C-221.99799895 162.22271316 -221.99799895 162.22271316 -219.9906649 162.1241985 C-219.0979424 162.12381878 -218.20521991 162.12343906 -217.28544521 162.12304783 C-215.74628119 162.1260344 -215.74628119 162.1260344 -214.17602295 162.12908131 C-213.03499699 162.12616847 -211.89397103 162.12325563 -210.71836853 162.12025452 C-209.51694971 162.12110894 -208.31553089 162.12196337 -207.07770544 162.12284368 C-203.72788054 162.12421189 -200.37811335 162.12106434 -197.0282954 162.11606562 C-193.42159896 162.11176449 -189.81490445 162.1132073 -186.20820618 162.1139679 C-179.95435599 162.11449335 -173.7005162 162.11134435 -167.44666862 162.10573006 C-158.4045516 162.0976179 -149.36243963 162.09500013 -140.32031936 162.09374207 C-125.65161305 162.0915511 -110.98291228 162.0848898 -96.31420898 162.07543945 C-82.06127958 162.06626649 -67.80835168 162.05918509 -53.55541992 162.05493164 C-52.67750595 162.05466892 -51.79959197 162.05440619 -50.89507454 162.05413551 C-46.49102823 162.05283051 -42.08698192 162.05156679 -37.6829356 162.05032361 C-1.12195315 162.0399496 35.439023 162.02233007 72 162 C72.65235649 160.72572109 73.30124129 159.44966449 73.94865417 158.17286682 C74.31037311 157.46245522 74.67209204 156.75204363 75.04477215 156.02010441 C80.02588553 145.48610555 78.27090754 131.17592195 78.20581055 119.85327148 C78.18756023 116.57332541 78.1853015 113.2936635 78.18554688 110.01367188 C79.69474573 89.74069267 79.69474573 89.74069267 73 72 C62.93315303 62.93983773 49.3955921 64.50415313 36.58984375 64.859375 C31.61282267 65.12962049 26.48220202 65.70757607 22 68 C21.28967673 69.31059646 20.61849561 70.64364997 20 72 C11.01114034 74.99628655 -1.20121148 71.53716297 -10.44030762 70.32873535 C-56.70716464 64.34829233 -102.38202576 64.46994981 -148.515625 71.41088867 C-149.66796379 71.57850708 -149.66796379 71.57850708 -150.84358215 71.74951172 C-152.27757716 71.95825404 -153.71042618 72.17511715 -155.14164734 72.40209961 C-160.04741722 73.10544337 -164.164882 72.90271527 -169 72 C-171.1953125 70.046875 -171.1953125 70.046875 -173 68 C-180.21224532 64.6326102 -188.32098576 64.72155007 -196.125 64.6875 C-197.04265137 64.68202148 -197.96030273 64.67654297 -198.90576172 64.67089844 C-207.50325944 64.7601831 -216.23310409 65.1998035 -223 71 Z M-204 177 C-204 180.3 -204 183.6 -204 187 C-200.40867181 190.59132819 -199.58165015 190.38388807 -194.6875 190.3984375 C-193.44742188 190.40230469 -192.20734375 190.40617188 -190.9296875 190.41015625 C-189.63289063 190.39855469 -188.33609375 190.38695312 -187 190.375 C-185.05480469 190.39240234 -185.05480469 190.39240234 -183.0703125 190.41015625 C-181.83023438 190.40628906 -180.59015625 190.40242187 -179.3125 190.3984375 C-177.60513672 190.39336182 -177.60513672 190.39336182 -175.86328125 190.38818359 C-172.63983121 190.24553236 -172.63983121 190.24553236 -170 187 C-170 183.7 -170 180.4 -170 177 C-181.22 177 -192.44 177 -204 177 Z M19 177 C18.51440543 184.52145243 18.51440543 184.52145243 22 190 C25.03434279 190.75589706 25.03434279 190.75589706 28.53125 190.62890625 C29.81644531 190.63083984 31.10164063 190.63277344 32.42578125 190.63476562 C33.42859131 190.61603394 33.42859131 190.61603394 34.45166016 190.59692383 C36.49391545 190.56260226 38.53184491 190.57625898 40.57421875 190.59570312 C47.12926887 190.94232517 47.12926887 190.94232517 52.90820312 188.52709961 C54.59490629 185.08182587 54.59490629 185.08182587 54 177 C42.45 177 30.9 177 19 177 Z " fill="#000000" transform="translate(392,235)"/>
<path d="M0 0 C1.70320908 -0.01270432 1.70320908 -0.01270432 3.44082642 -0.02566528 C7.19300542 -0.04905952 10.94477508 -0.05005699 14.69702148 -0.04882812 C17.30346339 -0.05592697 19.90990372 -0.06362556 22.51634216 -0.07189941 C27.9778883 -0.08649407 33.43932023 -0.08709129 38.90087891 -0.08105469 C45.21259923 -0.07440695 51.52373619 -0.09731114 57.83533818 -0.13436842 C63.91212196 -0.16875093 69.98862976 -0.17540377 76.06550407 -0.17127991 C78.6495532 -0.17297634 81.23360966 -0.18266872 83.81759834 -0.20042419 C87.42574901 -0.22249281 91.0324803 -0.21297262 94.640625 -0.1953125 C95.71242508 -0.20857574 96.78422516 -0.22183899 97.88850403 -0.23550415 C105.08736945 -0.15339539 105.08736945 -0.15339539 108.45030212 2.73181152 C110.24418431 6.42606176 109.91050886 8.52215587 108.75561523 12.41992188 C105.87774355 15.17670244 103.87937084 15.79493186 99.94239807 15.79414368 C98.49354721 15.80466515 98.49354721 15.80466515 97.01542664 15.81539917 C95.96232803 15.80775543 94.90922943 15.80011169 93.82421875 15.79223633 C92.71000549 15.79588699 91.59579224 15.79953766 90.44781494 15.80329895 C86.75989603 15.81141336 83.07241528 15.79778557 79.38452148 15.78320312 C76.82388815 15.78268459 74.2632544 15.78320203 71.70262146 15.78471375 C66.33342058 15.78462398 60.96437369 15.77452443 55.59521484 15.75610352 C49.39334823 15.7349471 43.19166681 15.73142391 36.98977143 15.73766547 C31.01821995 15.74336693 25.04672413 15.73759873 19.07517815 15.72649193 C16.5366333 15.72264065 13.99808287 15.72149141 11.4595356 15.72307777 C7.91171776 15.72344839 4.36418178 15.71082828 0.81640625 15.69458008 C-0.76020531 15.6982962 -0.76020531 15.6982962 -2.3686676 15.7020874 C-3.337388 15.69500259 -4.3061084 15.68791779 -5.30418396 15.68061829 C-6.14242927 15.67856542 -6.98067457 15.67651255 -7.84432125 15.67439747 C-10.61763383 15.38034677 -12.73549392 14.6242308 -15.24438477 13.41992188 C-17.20928267 10.91914273 -17.24719392 9.55757057 -17.18188477 6.35742188 C-16.24438477 3.41992188 -16.24438477 3.41992188 -14.38856506 1.76257324 C-9.64038696 -0.26502925 -5.1124299 -0.01400527 0 0 Z " fill="#000000" transform="translate(270.244384765625,343.580078125)"/>
<path d="M0 0 C0.75224854 -0.01764404 1.50449707 -0.03528809 2.27954102 -0.0534668 C9.21188876 -0.04503794 14.91785854 1.89822503 20.21875 6.62109375 C23.48172763 10.3787249 25.5472364 14.85457127 27.6875 19.3125 C28.19023437 20.34761719 28.69296875 21.38273437 29.2109375 22.44921875 C33.78374996 32.51698541 33.78374996 32.51698541 31.6875 38.3125 C28.02484226 41.71869156 25.33947027 41.76322916 20.5234375 41.59375 C5.8130252 40.13486614 -8.39213979 33.35025543 -18.1953125 22.1640625 C-22.47439429 16.60332336 -24.97183482 12.56518306 -24.3125 5.3125 C-22.07641999 2.26329998 -19.89805241 1.72531242 -16.25 1.125 C-10.83182631 0.34531159 -5.46555887 0.07347237 0 0 Z M-2.3125 15.3125 C1.04333515 19.227641 4.96816362 21.3920774 9.6875 23.3125 C10.3475 23.3125 11.0075 23.3125 11.6875 23.3125 C10.5035681 19.94284767 9.52886755 17.53393281 6.6875 15.3125 C4.40419899 14.95103543 4.40419899 14.95103543 2 15.125 C1.19175781 15.15207031 0.38351563 15.17914063 -0.44921875 15.20703125 C-1.06410156 15.24183594 -1.67898437 15.27664063 -2.3125 15.3125 Z " fill="#000000" transform="translate(197.3125,318.6875)"/>
<path d="M0 0 C2.90071771 2.22733681 2.97980689 2.85107581 3.5 6.6875 C3.17114959 14.18254904 -2.24478055 20.02218824 -7.4609375 24.984375 C-19.05736125 34.1901514 -34.14270195 39.77201231 -49 39 C-51.5 37.4375 -51.5 37.4375 -53 35 C-53.43148916 29.65868726 -52.43697357 25.49267184 -50.375 20.625 C-50.10284668 19.97160645 -49.83069336 19.31821289 -49.55029297 18.64501953 C-45.78479079 9.87476345 -41.86450238 3.23379218 -33 -1 C-23.90466469 -4.03177844 -8.93170351 -3.21197799 0 0 Z M-30.5625 15.3125 C-32.08794959 17.9828424 -32.08794959 17.9828424 -33 21 C-28.96522658 20.41841104 -26.14758799 19.13243941 -22.6875 17 C-21.80449219 16.46375 -20.92148437 15.9275 -20.01171875 15.375 C-19.34785156 14.92125 -18.68398438 14.4675 -18 14 C-18 13.67 -18 13.34 -18 13 C-24.84110601 12.20540454 -24.84110601 12.20540454 -30.5625 15.3125 Z " fill="#000000" transform="translate(457,321)"/>
<path d="M0 0 C0.78405212 -0.00686325 1.56810425 -0.0137265 2.37591553 -0.02079773 C4.97027648 -0.03911396 7.56403546 -0.03522139 10.15844727 -0.02954102 C11.96061908 -0.03410066 13.76278914 -0.03940557 15.56495667 -0.04542542 C19.34366922 -0.05436609 23.12217055 -0.05192273 26.90087891 -0.04199219 C31.74452719 -0.03050375 36.58744633 -0.05070698 41.4309988 -0.07990932 C45.15335222 -0.09825188 48.8755303 -0.09798273 52.59791756 -0.0922718 C54.38370855 -0.09211834 56.16951124 -0.09818363 57.95525932 -0.11056328 C60.4524094 -0.12543439 62.94820495 -0.1148257 65.4453125 -0.09765625 C66.55278587 -0.1121582 66.55278587 -0.1121582 67.68263245 -0.12695312 C71.08545827 -0.07793689 72.97214918 0.17132434 75.74232483 2.21665955 C78.02354884 5.44633023 77.90622628 7.55328889 77.28735352 11.40405273 C74.48595748 14.3884647 72.79917994 15.33019928 68.72058105 15.91871643 C67.32966808 15.9453563 65.93822891 15.95023462 64.54711914 15.9375 C63.7838884 15.94611557 63.02065765 15.95473114 62.23429871 15.96360779 C59.72038518 15.98624471 57.20758838 15.97953408 54.69360352 15.97045898 C52.94152496 15.97569532 51.18944923 15.98197183 49.43737793 15.98924255 C45.76890783 15.99964229 42.10082574 15.99509112 38.43237305 15.98046875 C33.73443328 15.96327434 29.03771581 15.9867858 24.33991241 16.02195835 C20.72300127 16.04393184 17.1063827 16.04249118 13.48942566 16.03419304 C11.75748859 16.03337362 10.02553003 16.04023525 8.2936554 16.05496407 C5.87087104 16.07241173 3.45028434 16.05786908 1.02758789 16.03515625 C-0.04172722 16.05269455 -0.04172722 16.05269455 -1.13264465 16.07058716 C-4.96546318 15.99758469 -6.63085621 15.46745291 -9.69641113 13.09117126 C-11.71264648 10.40405273 -11.71264648 10.40405273 -11.71264648 6.77905273 C-9.72291592 0.06371209 -6.52073768 -0.03964945 0 0 Z " fill="#000000" transform="translate(283.712646484375,319.595947265625)"/>
<path d="M0 0 C0.77444458 -0.00686325 1.54888916 -0.0137265 2.34680176 -0.02079773 C4.90326337 -0.03907895 7.45911214 -0.03522689 10.015625 -0.02954102 C11.79394735 -0.03410183 13.57226793 -0.03940711 15.35058594 -0.04542542 C19.07624476 -0.05435883 22.80168924 -0.05193038 26.52734375 -0.04199219 C31.30258572 -0.03049563 36.07708898 -0.05072306 40.85223389 -0.07990932 C44.5239736 -0.09825059 48.19553555 -0.09798315 51.86730957 -0.0922718 C53.62798093 -0.09211837 55.38866417 -0.09818099 57.14929199 -0.11056328 C59.61041712 -0.12543467 62.07016801 -0.11482622 64.53125 -0.09765625 C65.6223407 -0.1121582 65.6223407 -0.1121582 66.73547363 -0.12695312 C70.11495262 -0.07755988 71.9658735 0.18212551 74.71386719 2.21665955 C77.00402918 5.44492409 76.88505859 7.54979928 76.265625 11.40405273 C73.46422897 14.3884647 71.77745143 15.33019928 67.69885254 15.91871643 C66.30793957 15.9453563 64.9165004 15.95023462 63.52539062 15.9375 C62.76215988 15.94611557 61.99892914 15.95473114 61.21257019 15.96360779 C58.69865666 15.98624471 56.18585986 15.97953408 53.671875 15.97045898 C51.91979644 15.97569532 50.16772071 15.98197183 48.41564941 15.98924255 C44.74717932 15.99964229 41.07909723 15.99509112 37.41064453 15.98046875 C32.71270477 15.96327434 28.0159873 15.9867858 23.3181839 16.02195835 C19.70127276 16.04393184 16.08465418 16.04249118 12.46769714 16.03419304 C10.73576008 16.03337362 9.00380151 16.04023525 7.27192688 16.05496407 C4.84914253 16.07241173 2.42855582 16.05786908 0.00585938 16.03515625 C-1.06345573 16.05269455 -1.06345573 16.05269455 -2.15437317 16.07058716 C-5.98638643 15.99760003 -7.65084357 15.46888746 -10.7142334 13.09117126 C-12.734375 10.40405273 -12.734375 10.40405273 -12.796875 6.77905273 C-10.68566481 0.07285567 -6.38308556 -0.03950323 0 0 Z " fill="#000000" transform="translate(284.734375,367.595947265625)"/>
</svg>
