<?xml version="1.0" encoding="UTF-8"?>
<svg version="1.1" xmlns="http://www.w3.org/2000/svg" width="64" height="64">
<path d="M0 0 C2.64 0 5.28 0 8 0 C8 0.66 8 1.32 8 2 C6.35 2.33 4.7 2.66 3 3 C3 3.66 3 4.32 3 5 C3.33 4.67 3.66 4.34 4 4 C5.99958364 3.95919217 8.00045254 3.95745644 10 4 C10.66 5.32 11.32 6.64 12 8 C15.96 8 19.92 8 24 8 C23.34 6.35 22.68 4.7 22 3 C17.71 2.67 13.42 2.34 9 2 C9 1.34 9 0.68 9 0 C14.28 0 19.56 0 25 0 C25.33 1.32 25.66 2.64 26 4 C28.475 4.495 28.475 4.495 31 5 C31.042721 6.66611905 31.04063832 8.33382885 31 10 C30.67 10.33 30.34 10.66 30 11 C35.28 11.33 40.56 11.66 46 12 C46.495 13.98 46.495 13.98 47 16 C48.65 16.33 50.3 16.66 52 17 C51.7525 18.24330078 51.7525 18.24330078 51.5 19.51171875 C50.85800669 23.99062523 50.95345559 28.35728251 51.0390625 32.87304688 C51.0595081 34.58195855 51.03371051 36.29129852 51 38 C50 39 50 39 48.15234375 39.09765625 C46.1015625 39.06510417 44.05078125 39.03255208 42 39 C41.67 37.35 41.34 35.7 41 34 C39.35 34 37.7 34 36 34 C36 34.66 36 35.32 36 36 C36.639375 36.103125 37.27875 36.20625 37.9375 36.3125 C38.618125 36.539375 39.29875 36.76625 40 37 C41 40 41 40 40.0625 42.1875 C39.711875 42.785625 39.36125 43.38375 39 44 C39.33 44.33 39.66 44.66 40 45 C40.10007008 47.82256491 40.13875598 50.6152319 40.125 53.4375 C40.13080078 54.62182617 40.13080078 54.62182617 40.13671875 55.83007812 C40.12663067 61.74673867 40.12663067 61.74673867 39 64 C35.7 64 32.4 64 29 64 C28.67 62.35 28.34 60.7 28 59 C24.04 59 20.08 59 16 59 C15.67 58.01 15.34 57.02 15 56 C15 56.99 15 57.98 15 59 C12.03 59 9.06 59 6 59 C5.505 61.475 5.505 61.475 5 64 C1.7 64 -1.6 64 -5 64 C-4.98839844 62.49566406 -4.97679687 60.99132813 -4.96484375 59.44140625 C-4.95546751 57.48177207 -4.94636713 55.52213655 -4.9375 53.5625 C-4.92912109 52.56927734 -4.92074219 51.57605469 -4.91210938 50.55273438 C-4.90888672 49.60849609 -4.90566406 48.66425781 -4.90234375 47.69140625 C-4.89710693 46.81685791 -4.89187012 45.94230957 -4.88647461 45.04125977 C-4.77215191 43.00559794 -4.77215191 43.00559794 -6 42 C-6.04063832 40.33382885 -6.042721 38.66611905 -6 37 C-5.38125 36.814375 -4.7625 36.62875 -4.125 36.4375 C-1.11246928 34.73128685 -1.11246928 34.73128685 0 28 C4.95 28 9.9 28 15 28 C15.33 26.02 15.66 24.04 16 22 C12.04 22 8.08 22 4 22 C3.67 23.32 3.34 24.64 3 26 C0.66705225 26.04241723 -1.66702567 26.04092937 -4 26 C-5.58403524 24.41596476 -5.21974935 22.7228362 -5.31640625 20.52734375 C-5.35830078 19.62822266 -5.40019531 18.72910156 -5.44335938 17.80273438 C-5.48267578 16.85720703 -5.52199219 15.91167969 -5.5625 14.9375 C-5.60568359 13.98810547 -5.64886719 13.03871094 -5.69335938 12.06054688 C-5.79979276 9.70718647 -5.90181008 7.35371646 -6 5 C-4.35 4.67 -2.7 4.34 -1 4 C-0.67 2.68 -0.34 1.36 0 0 Z M-1 11 C-1 11.33 -1 11.66 -1 12 C7.91 12 16.82 12 26 12 C26 11.67 26 11.34 26 11 C17.09 11 8.18 11 -1 11 Z M2 15 C1.67 15.66 1.34 16.32 1 17 C-0.98 17.99 -0.98 17.99 -3 19 C2.61 19 8.22 19 14 19 C14.33 18.34 14.66 17.68 15 17 C16.32 16.34 17.64 15.68 19 15 C13.39 15 7.78 15 2 15 Z M22 15 C22.33 15.99 22.66 16.98 23 18 C23.33 17.67 23.66 17.34 24 17 C27.4375 16.8125 27.4375 16.8125 31 17 C31.66 17.66 32.32 18.32 33 19 C35.89883083 19.24339551 35.89883083 19.24339551 39.125 19.125 C40.76855469 19.09792969 40.76855469 19.09792969 42.4453125 19.0703125 C43.28835937 19.04710937 44.13140625 19.02390625 45 19 C44.67 17.68 44.34 16.36 44 15 C36.74 15 29.48 15 22 15 Z M-3 22 C1 23 1 23 1 23 Z M20 22 C19.67 22.66 19.34 23.32 19 24 C28.24 24 37.48 24 47 24 C46.67 23.34 46.34 22.68 46 22 C37.42 22 28.84 22 20 22 Z M25 27 C25 27.33 25 27.66 25 28 C27.97 28.33 30.94 28.66 34 29 C34.33 29.99 34.66 30.98 35 32 C39.62 32 44.24 32 49 32 C49 31.67 49 31.34 49 31 C47.02 31 45.04 31 43 31 C42.67 29.68 42.34 28.36 42 27 C36.39 27 30.78 27 25 27 Z M45 27 C49 28 49 28 49 28 Z M2 31 C1.67 33.97 1.34 36.94 1 40 C1.845625 39.154375 2.69125 38.30875 3.5625 37.4375 C6.33178983 35.12208427 6.88029641 35.00199506 10.75 34.9375 C12.35875 35.4634375 12.35875 35.4634375 14 36 C14.66 37.32 15.32 38.64 16 40 C21.61 40 27.22 40 33 40 C32.67 37.03 32.34 34.06 32 31 C22.1 31 12.2 31 2 31 Z M44 34 C44 34.66 44 35.32 44 36 C45.65 36 47.3 36 49 36 C49 35.34 49 34.68 49 34 C47.35 34 45.7 34 44 34 Z M8 37 C7.01 38.485 7.01 38.485 6 40 C8.31 40 10.62 40 13 40 C12.34 39.01 11.68 38.02 11 37 C10.01 37 9.02 37 8 37 Z M-1 43 C-1 43.66 -1 44.32 -1 45 C10.88 45 22.76 45 35 45 C35 44.34 35 43.68 35 43 C23.12 43 11.24 43 -1 43 Z M-3 48 C-3 48.33 -3 48.66 -3 49 C-0.36 49 2.28 49 5 49 C4.67 50.65 4.34 52.3 4 54 C1.69 54.33 -0.62 54.66 -3 55 C-3 55.33 -3 55.66 -3 56 C-0.03 56 2.94 56 6 56 C6.66 54.02 7.32 52.04 8 50 C13.94 50 19.88 50 26 50 C26.66 51.98 27.32 53.96 28 56 C30.97 56 33.94 56 37 56 C37 55.67 37 55.34 37 55 C34.69 55 32.38 55 30 55 C29.505 52.03 29.505 52.03 29 49 C31.64 49 34.28 49 37 49 C37 48.67 37 48.34 37 48 C23.8 48 10.6 48 -3 48 Z M-3 51 C-3 51.33 -3 51.66 -3 52 C-1.35 52 0.3 52 2 52 C2 51.67 2 51.34 2 51 C0.35 51 -1.3 51 -3 51 Z M10 51 C10 51.33 10 51.66 10 52 C14.62 52 19.24 52 24 52 C24 51.67 24 51.34 24 51 C19.38 51 14.76 51 10 51 Z M32 51 C32 51.33 32 51.66 32 52 C33.65 52 35.3 52 37 52 C37 51.67 37 51.34 37 51 C35.35 51 33.7 51 32 51 Z M-3 59 C-2.67 59.99 -2.34 60.98 -2 62 C-0.35 61.67 1.3 61.34 3 61 C3 60.34 3 59.68 3 59 C1.02 59 -0.96 59 -3 59 Z M31 59 C31.33 59.99 31.66 60.98 32 62 C33.65 61.67 35.3 61.34 37 61 C37 60.34 37 59.68 37 59 C35.02 59 33.04 59 31 59 Z " fill="#000000" transform="translate(9,0)"/>
<path d="M0 0 C0.99 0 1.98 0 3 0 C3 0.66 3 1.32 3 2 C2.01 2 1.02 2 0 2 C0 1.34 0 0.68 0 0 Z " fill="#000000" transform="translate(37,32)"/>
<path d="M0 0 C0.99 0 1.98 0 3 0 C3 0.66 3 1.32 3 2 C2.01 2 1.02 2 0 2 C0 1.34 0 0.68 0 0 Z " fill="#000000" transform="translate(33,32)"/>
</svg>
